<svg width="1258" height="526" viewBox="0 0 1258 526" fill="none" xmlns="http://www.w3.org/2000/svg">
<mask id="mask0_94_664" style="mask-type:alpha" maskUnits="userSpaceOnUse" x="0" y="-26" width="1440" height="552">
<rect y="-26" width="1440" height="552" fill="url(#paint0_radial_94_664)"/>
</mask>
<g mask="url(#mask0_94_664)">
<rect width="1265" height="633" transform="translate(-7 -26)" fill="white"/>
<rect x="-6.5" y="-25.5" width="79" height="79" fill="white" stroke="#9CA3AF"/>
<rect x="72.5" y="-25.5" width="79" height="79" fill="white" stroke="#9CA3AF"/>
<rect x="151.5" y="-25.5" width="79" height="79" fill="white" stroke="#9CA3AF"/>
<rect x="230.5" y="-25.5" width="79" height="79" fill="white" stroke="#9CA3AF"/>
<rect x="309.5" y="-25.5" width="79" height="79" fill="white" stroke="#9CA3AF"/>
<rect x="388.5" y="-25.5" width="79" height="79" fill="white" stroke="#9CA3AF"/>
<rect x="467.5" y="-25.5" width="79" height="79" fill="white" stroke="#9CA3AF"/>
<rect x="546.5" y="-25.5" width="79" height="79" fill="white" stroke="#9CA3AF"/>
<rect x="625.5" y="-25.5" width="79" height="79" stroke="#9CA3AF"/>
<rect x="704.5" y="-25.5" width="79" height="79" fill="white" stroke="#9CA3AF"/>
<rect x="783.5" y="-25.5" width="79" height="79" fill="white" stroke="#9CA3AF"/>
<rect x="862.5" y="-25.5" width="79" height="79" fill="white" stroke="#9CA3AF"/>
<rect x="941.5" y="-25.5" width="79" height="79" fill="white" stroke="#9CA3AF"/>
<rect x="1020.5" y="-25.5" width="79" height="79" fill="white" stroke="#9CA3AF"/>
<rect x="1099.5" y="-25.5" width="79" height="79" fill="white" stroke="#9CA3AF"/>
<rect x="1178.5" y="-25.5" width="79" height="79" fill="white" stroke="#9CA3AF"/>
<rect x="-6.5" y="53.5" width="79" height="79" fill="white" stroke="#9CA3AF"/>
<rect x="72.5" y="53.5" width="79" height="79" fill="white" stroke="#9CA3AF"/>
<rect x="151.5" y="53.5" width="79" height="79" fill="white" stroke="#9CA3AF"/>
<rect x="230.5" y="53.5" width="79" height="79" fill="white" stroke="#9CA3AF"/>
<rect x="309.5" y="53.5" width="79" height="79" fill="white" stroke="#9CA3AF"/>
<rect x="388.5" y="53.5" width="79" height="79" fill="white" stroke="#9CA3AF"/>
<rect x="467.5" y="53.5" width="79" height="79" fill="white" stroke="#9CA3AF"/>
<rect x="546.5" y="53.5" width="79" height="79" fill="white" stroke="#9CA3AF"/>
<rect x="625.5" y="53.5" width="79" height="79" stroke="#9CA3AF"/>
<rect x="704.5" y="53.5" width="79" height="79" fill="white" stroke="#9CA3AF"/>
<rect x="783.5" y="53.5" width="79" height="79" fill="white" stroke="#9CA3AF"/>
<rect x="862.5" y="53.5" width="79" height="79" stroke="#9CA3AF"/>
<rect x="941.5" y="53.5" width="79" height="79" fill="white" stroke="#9CA3AF"/>
<rect x="1020.5" y="53.5" width="79" height="79" fill="white" stroke="#9CA3AF"/>
<rect x="1099.5" y="53.5" width="79" height="79" fill="white" stroke="#9CA3AF"/>
<rect x="1178.5" y="53.5" width="79" height="79" fill="white" stroke="#9CA3AF"/>
<rect x="-6.5" y="132.5" width="79" height="79" fill="white" stroke="#9CA3AF"/>
<rect x="72.5" y="132.5" width="79" height="79" fill="white" stroke="#9CA3AF"/>
<rect x="151.5" y="132.5" width="79" height="79" fill="white" stroke="#9CA3AF"/>
<rect x="230.5" y="132.5" width="79" height="79" fill="white" stroke="#9CA3AF"/>
<rect x="309.5" y="132.5" width="79" height="79" fill="white" stroke="#9CA3AF"/>
<rect x="388.5" y="132.5" width="79" height="79" fill="white" stroke="#9CA3AF"/>
<rect x="467.5" y="132.5" width="79" height="79" fill="white" stroke="#9CA3AF"/>
<rect x="546.5" y="132.5" width="79" height="79" fill="white" stroke="#9CA3AF"/>
<rect x="625.5" y="132.5" width="79" height="79" fill="#D1D5DB" stroke="#9CA3AF"/>
<rect x="704.5" y="132.5" width="79" height="79" stroke="#9CA3AF"/>
<rect x="783.5" y="132.5" width="79" height="79" fill="white" stroke="#9CA3AF"/>
<rect x="862.5" y="132.5" width="79" height="79" stroke="#9CA3AF"/>
<rect x="941.5" y="132.5" width="79" height="79" fill="white" stroke="#9CA3AF"/>
<rect x="1020.5" y="132.5" width="79" height="79" fill="white" stroke="#9CA3AF"/>
<rect x="1099.5" y="132.5" width="79" height="79" fill="white" stroke="#9CA3AF"/>
<rect x="1178.5" y="132.5" width="79" height="79" fill="white" stroke="#9CA3AF"/>
<rect x="-6.5" y="211.5" width="79" height="79" fill="white" stroke="#9CA3AF"/>
<rect x="72.5" y="211.5" width="79" height="79" fill="white" stroke="#9CA3AF"/>
<rect x="151.5" y="211.5" width="79" height="79" fill="white" stroke="#9CA3AF"/>
<rect x="230.5" y="211.5" width="79" height="79" fill="white" stroke="#9CA3AF"/>
<rect x="309.5" y="211.5" width="79" height="79" fill="#D1D5DB" stroke="#9CA3AF"/>
<rect x="388.5" y="211.5" width="79" height="79" fill="white" stroke="#9CA3AF"/>
<rect x="467.5" y="211.5" width="79" height="79" fill="white" stroke="#9CA3AF"/>
<rect x="546.5" y="211.5" width="79" height="79" fill="white" stroke="#9CA3AF"/>
<rect x="625.5" y="211.5" width="79" height="79" stroke="#9CA3AF"/>
<rect x="704.5" y="211.5" width="79" height="79" fill="white" stroke="#9CA3AF"/>
<rect x="783.5" y="211.5" width="79" height="79" fill="white" stroke="#9CA3AF"/>
<rect x="862.5" y="211.5" width="79" height="79" stroke="#9CA3AF"/>
<rect x="941.5" y="211.5" width="79" height="79" fill="#D1D5DB" stroke="#9CA3AF"/>
<rect x="1020.5" y="211.5" width="79" height="79" fill="white" stroke="#9CA3AF"/>
<rect x="1099.5" y="211.5" width="79" height="79" fill="white" stroke="#9CA3AF"/>
<rect x="1178.5" y="211.5" width="79" height="79" fill="white" stroke="#9CA3AF"/>
<rect x="-6.5" y="290.5" width="79" height="79" fill="white" stroke="#9CA3AF"/>
<rect x="72.5" y="290.5" width="79" height="79" fill="white" stroke="#9CA3AF"/>
<rect x="151.5" y="290.5" width="79" height="79" fill="white" stroke="#9CA3AF"/>
<rect x="230.5" y="290.5" width="79" height="79" fill="white" stroke="#9CA3AF"/>
<rect x="309.5" y="290.5" width="79" height="79" fill="white" stroke="#9CA3AF"/>
<rect x="388.5" y="290.5" width="79" height="79" fill="white" stroke="#9CA3AF"/>
<rect x="467.5" y="290.5" width="79" height="79" fill="white" stroke="#9CA3AF"/>
<rect x="546.5" y="290.5" width="79" height="79" fill="#D1D5DB" stroke="#9CA3AF"/>
<rect x="625.5" y="290.5" width="79" height="79" stroke="#9CA3AF"/>
<rect x="704.5" y="290.5" width="79" height="79" fill="white" stroke="#9CA3AF"/>
<rect x="783.5" y="290.5" width="79" height="79" fill="white" stroke="#9CA3AF"/>
<rect x="862.5" y="290.5" width="79" height="79" stroke="#9CA3AF"/>
<rect x="941.5" y="290.5" width="79" height="79" fill="white" stroke="#9CA3AF"/>
<rect x="1020.5" y="290.5" width="79" height="79" fill="white" stroke="#9CA3AF"/>
<rect x="1099.5" y="290.5" width="79" height="79" fill="white" stroke="#9CA3AF"/>
<rect x="1178.5" y="290.5" width="79" height="79" fill="white" stroke="#9CA3AF"/>
<rect x="-6.5" y="369.5" width="79" height="79" fill="white" stroke="#9CA3AF"/>
<rect x="72.5" y="369.5" width="79" height="79" fill="white" stroke="#9CA3AF"/>
<rect x="151.5" y="369.5" width="79" height="79" fill="white" stroke="#9CA3AF"/>
<rect x="230.5" y="369.5" width="79" height="79" fill="white" stroke="#9CA3AF"/>
<rect x="309.5" y="369.5" width="79" height="79" fill="white" stroke="#9CA3AF"/>
<rect x="388.5" y="369.5" width="79" height="79" fill="#D1D5DB" stroke="#9CA3AF"/>
<rect x="467.5" y="369.5" width="79" height="79" fill="white" stroke="#9CA3AF"/>
<rect x="546.5" y="369.5" width="79" height="79" fill="white" stroke="#9CA3AF"/>
<rect x="625.5" y="369.5" width="79" height="79" stroke="#9CA3AF"/>
<rect x="704.5" y="369.5" width="79" height="79" fill="white" stroke="#9CA3AF"/>
<rect x="783.5" y="369.5" width="79" height="79" fill="white" stroke="#9CA3AF"/>
<rect x="862.5" y="369.5" width="79" height="79" stroke="#9CA3AF"/>
<rect x="941.5" y="369.5" width="79" height="79" fill="#D1D5DB" stroke="#9CA3AF"/>
<rect x="1020.5" y="369.5" width="79" height="79" fill="white" stroke="#9CA3AF"/>
<rect x="1099.5" y="369.5" width="79" height="79" fill="white" stroke="#9CA3AF"/>
<rect x="1178.5" y="369.5" width="79" height="79" fill="white" stroke="#9CA3AF"/>
<rect x="-6.5" y="448.5" width="79" height="79" fill="white" stroke="#9CA3AF"/>
<rect x="72.5" y="448.5" width="79" height="79" fill="white" stroke="#9CA3AF"/>
<rect x="151.5" y="448.5" width="79" height="79" fill="white" stroke="#9CA3AF"/>
<rect x="230.5" y="448.5" width="79" height="79" fill="white" stroke="#9CA3AF"/>
<rect x="309.5" y="448.5" width="79" height="79" fill="white" stroke="#9CA3AF"/>
<rect x="388.5" y="448.5" width="79" height="79" fill="white" stroke="#9CA3AF"/>
<rect x="467.5" y="448.5" width="79" height="79" fill="white" stroke="#9CA3AF"/>
<rect x="546.5" y="448.5" width="79" height="79" fill="white" stroke="#9CA3AF"/>
<rect x="625.5" y="448.5" width="79" height="79" fill="white" stroke="#9CA3AF"/>
<rect x="704.5" y="448.5" width="79" height="79" fill="white" stroke="#9CA3AF"/>
<rect x="783.5" y="448.5" width="79" height="79" fill="white" stroke="#9CA3AF"/>
<rect x="862.5" y="448.5" width="79" height="79" stroke="#9CA3AF"/>
<rect x="941.5" y="448.5" width="79" height="79" fill="white" stroke="#9CA3AF"/>
<rect x="1020.5" y="448.5" width="79" height="79" fill="white" stroke="#9CA3AF"/>
<rect x="1099.5" y="448.5" width="79" height="79" fill="white" stroke="#9CA3AF"/>
<rect x="1178.5" y="448.5" width="79" height="79" fill="white" stroke="#9CA3AF"/>
</g>
<defs>
<radialGradient id="paint0_radial_94_664" cx="0" cy="0" r="1" gradientUnits="userSpaceOnUse" gradientTransform="translate(720 250) rotate(90.6349) scale(270.732 706.228)">
<stop stop-color="#111827" stop-opacity="0.2"/>
<stop offset="1" stop-color="#111827" stop-opacity="0"/>
</radialGradient>
</defs>
</svg>
