<svg width="158" height="32" viewBox="0 0 158 32" fill="none" xmlns="http://www.w3.org/2000/svg">
<path d="M45.598 23V8.45455H50.7827C51.9096 8.45455 52.8447 8.64867 53.5881 9.03693C54.3362 9.42519 54.8949 9.96259 55.2642 10.6491C55.6335 11.331 55.8182 12.1193 55.8182 13.0142C55.8182 13.9044 55.6312 14.688 55.2571 15.3651C54.8878 16.0374 54.3291 16.5606 53.581 16.9347C52.8376 17.3087 51.9025 17.4957 50.7756 17.4957H46.848V15.6065H50.5767C51.2869 15.6065 51.8646 15.5047 52.3097 15.3011C52.7595 15.0975 53.0885 14.8016 53.2969 14.4134C53.5052 14.0251 53.6094 13.5587 53.6094 13.0142C53.6094 12.465 53.5028 11.9891 53.2898 11.5866C53.0814 11.1842 52.7524 10.8764 52.3026 10.6634C51.8575 10.4455 51.2727 10.3366 50.5483 10.3366H47.7926V23H45.598ZM52.7784 16.4375L56.3722 23H53.8722L50.3494 16.4375H52.7784ZM61.4929 23.2415C60.8016 23.2415 60.1766 23.1136 59.6179 22.858C59.0592 22.5975 58.6165 22.2211 58.2898 21.7287C57.9678 21.2363 57.8068 20.6326 57.8068 19.9176C57.8068 19.3021 57.9252 18.7955 58.1619 18.3977C58.3987 18 58.7183 17.6851 59.1207 17.4531C59.5232 17.2211 59.973 17.0459 60.4702 16.9276C60.9673 16.8092 61.474 16.7192 61.9901 16.6577C62.6435 16.5819 63.1738 16.5204 63.581 16.473C63.9882 16.4209 64.2841 16.3381 64.4688 16.2244C64.6534 16.1108 64.7457 15.9261 64.7457 15.6705V15.6207C64.7457 15.0005 64.5705 14.5199 64.2202 14.179C63.8745 13.8381 63.3584 13.6676 62.6719 13.6676C61.9569 13.6676 61.3935 13.8262 60.9815 14.1435C60.5743 14.456 60.2926 14.804 60.1364 15.1875L58.1406 14.733C58.3774 14.0701 58.723 13.535 59.1776 13.1278C59.6368 12.7159 60.1648 12.4176 60.7614 12.233C61.358 12.0436 61.9853 11.9489 62.6435 11.9489C63.0791 11.9489 63.5407 12.0009 64.0284 12.1051C64.5208 12.2045 64.9801 12.3892 65.4062 12.6591C65.8371 12.929 66.1899 13.3149 66.4645 13.8168C66.7391 14.3139 66.8764 14.9602 66.8764 15.7557V23H64.8026V21.5085H64.7173C64.58 21.7831 64.3741 22.053 64.0994 22.3182C63.8248 22.5833 63.4721 22.8035 63.0412 22.9787C62.6103 23.1539 62.0942 23.2415 61.4929 23.2415ZM61.9545 21.5369C62.5417 21.5369 63.0436 21.4209 63.4602 21.1889C63.8816 20.9569 64.2012 20.6539 64.419 20.2798C64.6416 19.901 64.7528 19.4962 64.7528 19.0653V17.6591C64.6771 17.7348 64.5303 17.8059 64.3125 17.8722C64.0994 17.9337 63.8556 17.9882 63.581 18.0355C63.3063 18.0781 63.0388 18.1184 62.7784 18.1562C62.518 18.1894 62.3002 18.2178 62.125 18.2415C61.7131 18.2936 61.3366 18.3812 60.9957 18.5043C60.6596 18.6274 60.3897 18.8049 60.1861 19.0369C59.9872 19.2642 59.8878 19.5672 59.8878 19.946C59.8878 20.4716 60.0819 20.8693 60.4702 21.1392C60.8584 21.4044 61.3532 21.5369 61.9545 21.5369ZM69.7049 27.0909V12.0909H71.7788V13.8594H71.9563C72.0794 13.6321 72.257 13.3693 72.489 13.071C72.721 12.7727 73.043 12.5123 73.4549 12.2898C73.8668 12.0625 74.4113 11.9489 75.0884 11.9489C75.9691 11.9489 76.7551 12.1714 77.4464 12.6165C78.1377 13.0616 78.6798 13.7031 79.0728 14.5412C79.4705 15.3793 79.6694 16.3878 79.6694 17.5668C79.6694 18.7457 79.4729 19.7566 79.0799 20.5994C78.6869 21.4375 78.1471 22.0838 77.4606 22.5384C76.774 22.9882 75.9904 23.2131 75.1097 23.2131C74.4469 23.2131 73.9047 23.1018 73.4833 22.8793C73.0666 22.6567 72.7399 22.3963 72.5032 22.098C72.2665 21.7997 72.0842 21.5346 71.9563 21.3026H71.8285V27.0909H69.7049ZM71.7859 17.5455C71.7859 18.3125 71.8971 18.9848 72.1197 19.5625C72.3422 20.1402 72.6642 20.5923 73.0856 20.919C73.507 21.241 74.0231 21.402 74.6339 21.402C75.2683 21.402 75.7987 21.2339 76.2248 20.8977C76.6509 20.5568 76.9729 20.0952 77.1907 19.5128C77.4132 18.9304 77.5245 18.2746 77.5245 17.5455C77.5245 16.8258 77.4156 16.1795 77.1978 15.6065C76.9847 15.0336 76.6628 14.5814 76.2319 14.25C75.8058 13.9186 75.2731 13.7528 74.6339 13.7528C74.0183 13.7528 73.4975 13.9115 73.0714 14.2287C72.65 14.5459 72.3304 14.9886 72.1126 15.5568C71.8948 16.125 71.7859 16.7879 71.7859 17.5455ZM82.0487 23V12.0909H84.1722V23H82.0487ZM83.1211 10.4077C82.7518 10.4077 82.4345 10.2846 82.1694 10.0384C81.909 9.7874 81.7788 9.48911 81.7788 9.14347C81.7788 8.79309 81.909 8.49479 82.1694 8.24858C82.4345 7.99763 82.7518 7.87216 83.1211 7.87216C83.4904 7.87216 83.8053 7.99763 84.0657 8.24858C84.3308 8.49479 84.4634 8.79309 84.4634 9.14347C84.4634 9.48911 84.3308 9.7874 84.0657 10.0384C83.8053 10.2846 83.4904 10.4077 83.1211 10.4077ZM91.1129 23.2131C90.2322 23.2131 89.4463 22.9882 88.755 22.5384C88.0684 22.0838 87.5286 21.4375 87.1357 20.5994C86.7474 19.7566 86.5533 18.7457 86.5533 17.5668C86.5533 16.3878 86.7498 15.3793 87.1428 14.5412C87.5405 13.7031 88.085 13.0616 88.7763 12.6165C89.4676 12.1714 90.2512 11.9489 91.1271 11.9489C91.8042 11.9489 92.3487 12.0625 92.7607 12.2898C93.1773 12.5123 93.4993 12.7727 93.7266 13.071C93.9586 13.3693 94.1385 13.6321 94.2663 13.8594H94.3942V8.45455H96.5178V23H94.4439V21.3026H94.2663C94.1385 21.5346 93.9538 21.7997 93.7124 22.098C93.4756 22.3963 93.1489 22.6567 92.7322 22.8793C92.3156 23.1018 91.7758 23.2131 91.1129 23.2131ZM91.5817 21.402C92.1925 21.402 92.7086 21.241 93.13 20.919C93.5561 20.5923 93.8781 20.1402 94.0959 19.5625C94.3184 18.9848 94.4297 18.3125 94.4297 17.5455C94.4297 16.7879 94.3208 16.125 94.103 15.5568C93.8852 14.9886 93.5656 14.5459 93.1442 14.2287C92.7228 13.9115 92.2019 13.7528 91.5817 13.7528C90.9425 13.7528 90.4098 13.9186 89.9837 14.25C89.5575 14.5814 89.2356 15.0336 89.0178 15.6065C88.8047 16.1795 88.6982 16.8258 88.6982 17.5455C88.6982 18.2746 88.8071 18.9304 89.0249 19.5128C89.2427 20.0952 89.5646 20.5568 89.9908 20.8977C90.4216 21.2339 90.9519 21.402 91.5817 21.402ZM99.7191 23V8.45455H108.739V10.3438H101.914V14.7756H108.093V16.6577H101.914V23H99.7191ZM115.062 23.2202C114.039 23.2202 113.147 22.9858 112.384 22.517C111.622 22.0483 111.03 21.3925 110.609 20.5497C110.187 19.7069 109.977 18.7221 109.977 17.5952C109.977 16.4635 110.187 15.474 110.609 14.6264C111.03 13.7789 111.622 13.1207 112.384 12.652C113.147 12.1832 114.039 11.9489 115.062 11.9489C116.085 11.9489 116.977 12.1832 117.739 12.652C118.502 13.1207 119.094 13.7789 119.515 14.6264C119.936 15.474 120.147 16.4635 120.147 17.5952C120.147 18.7221 119.936 19.7069 119.515 20.5497C119.094 21.3925 118.502 22.0483 117.739 22.517C116.977 22.9858 116.085 23.2202 115.062 23.2202ZM115.069 21.4375C115.732 21.4375 116.281 21.2623 116.717 20.9119C117.152 20.5616 117.474 20.0952 117.683 19.5128C117.896 18.9304 118.002 18.2888 118.002 17.5881C118.002 16.892 117.896 16.2528 117.683 15.6705C117.474 15.0833 117.152 14.6122 116.717 14.2571C116.281 13.902 115.732 13.7244 115.069 13.7244C114.401 13.7244 113.847 13.902 113.407 14.2571C112.971 14.6122 112.647 15.0833 112.434 15.6705C112.226 16.2528 112.121 16.892 112.121 17.5881C112.121 18.2888 112.226 18.9304 112.434 19.5128C112.647 20.0952 112.971 20.5616 113.407 20.9119C113.847 21.2623 114.401 21.4375 115.069 21.4375ZM122.517 23V12.0909H124.57V13.8239H124.684C124.882 13.2367 125.233 12.7751 125.735 12.4389C126.241 12.098 126.814 11.9276 127.453 11.9276C127.586 11.9276 127.742 11.9323 127.922 11.9418C128.107 11.9512 128.251 11.9631 128.355 11.9773V14.0085C128.27 13.9848 128.119 13.9588 127.901 13.9304C127.683 13.8973 127.465 13.8807 127.248 13.8807C126.746 13.8807 126.298 13.9872 125.905 14.2003C125.517 14.4086 125.209 14.6998 124.982 15.0739C124.755 15.4432 124.641 15.8646 124.641 16.3381V23H122.517ZM130.193 23V12.0909H132.232V13.8665H132.366C132.594 13.2652 132.965 12.7964 133.482 12.4602C133.998 12.1193 134.616 11.9489 135.335 11.9489C136.064 11.9489 136.675 12.1193 137.168 12.4602C137.665 12.8011 138.032 13.2699 138.268 13.8665H138.382C138.643 13.2841 139.057 12.8201 139.625 12.4744C140.193 12.1241 140.87 11.9489 141.656 11.9489C142.646 11.9489 143.453 12.259 144.078 12.8793C144.708 13.4995 145.023 14.4347 145.023 15.6847V23H142.899V15.8835C142.899 15.1449 142.698 14.6098 142.295 14.2784C141.893 13.947 141.412 13.7812 140.854 13.7812C140.162 13.7812 139.625 13.9943 139.241 14.4205C138.858 14.8419 138.666 15.384 138.666 16.0469V23H136.55V15.7486C136.55 15.1567 136.365 14.6809 135.996 14.321C135.626 13.9612 135.146 13.7812 134.554 13.7812C134.152 13.7812 133.78 13.8878 133.439 14.1009C133.103 14.3092 132.83 14.6004 132.622 14.9744C132.419 15.3485 132.317 15.7817 132.317 16.2741V23H130.193ZM156.044 14.7543L154.119 15.0952C154.038 14.849 153.911 14.6146 153.735 14.392C153.565 14.1695 153.333 13.9872 153.039 13.8452C152.746 13.7031 152.379 13.6321 151.939 13.6321C151.337 13.6321 150.835 13.767 150.433 14.0369C150.03 14.3021 149.829 14.6454 149.829 15.0668C149.829 15.4313 149.964 15.7249 150.234 15.9474C150.504 16.17 150.94 16.3523 151.541 16.4943L153.274 16.892C154.278 17.1241 155.026 17.4815 155.518 17.9645C156.011 18.4474 156.257 19.0748 156.257 19.8466C156.257 20.5 156.067 21.0824 155.689 21.5938C155.315 22.1004 154.791 22.4981 154.119 22.7869C153.451 23.0758 152.677 23.2202 151.797 23.2202C150.575 23.2202 149.578 22.9598 148.806 22.4389C148.035 21.9134 147.561 21.1676 147.386 20.2017L149.439 19.8892C149.566 20.4242 149.829 20.8291 150.227 21.1037C150.625 21.3736 151.143 21.5085 151.782 21.5085C152.478 21.5085 153.035 21.3641 153.451 21.0753C153.868 20.7817 154.076 20.4242 154.076 20.0028C154.076 19.6619 153.949 19.3755 153.693 19.1435C153.442 18.9115 153.056 18.7363 152.535 18.6179L150.689 18.2131C149.671 17.9811 148.918 17.6117 148.43 17.1051C147.947 16.5985 147.706 15.9569 147.706 15.1804C147.706 14.5365 147.886 13.973 148.245 13.4901C148.605 13.0071 149.102 12.6307 149.737 12.3608C150.371 12.0862 151.098 11.9489 151.917 11.9489C153.096 11.9489 154.024 12.2045 154.701 12.7159C155.378 13.2225 155.826 13.902 156.044 14.7543Z" fill="black"/>
<path d="M23.3333 23.3333L23.3333 8.66667M10.4 4H21.6C23.8402 4 24.9603 4 25.816 4.43597C26.5686 4.81947 27.1805 5.43139 27.564 6.18404C28 7.03969 28 8.15979 28 10.4V21.6C28 23.8402 28 24.9603 27.564 25.816C27.1805 26.5686 26.5686 27.1805 25.816 27.564C24.9603 28 23.8402 28 21.6 28H10.4C8.15979 28 7.03969 28 6.18404 27.564C5.43139 27.1805 4.81947 26.5686 4.43597 25.816C4 24.9603 4 23.8402 4 21.6V10.4C4 8.15979 4 7.03969 4.43597 6.18404C4.81947 5.43139 5.43139 4.81947 6.18404 4.43597C7.03969 4 8.15979 4 10.4 4Z" stroke="#1F2937" stroke-width="2" stroke-linecap="round" stroke-linejoin="round"/>
</svg>
