<svg width="332" height="305" viewBox="0 0 332 305" fill="none" xmlns="http://www.w3.org/2000/svg">
<g opacity="0.6">
<rect x="238.366" y="243.5" width="61" height="31" rx="15.5" stroke="#334155"/>
<path d="M261.7 263H259.007V254.273H261.82C262.666 254.273 263.391 254.447 263.993 254.797C264.595 255.143 265.057 255.642 265.378 256.293C265.699 256.94 265.859 257.716 265.859 258.619C265.859 259.528 265.697 260.311 265.373 260.967C265.05 261.621 264.578 262.124 263.959 262.476C263.339 262.825 262.587 263 261.7 263ZM260.064 262.062H261.632C262.354 262.062 262.952 261.923 263.426 261.645C263.9 261.366 264.254 260.97 264.487 260.456C264.72 259.942 264.837 259.33 264.837 258.619C264.837 257.915 264.722 257.308 264.491 256.8C264.261 256.288 263.918 255.896 263.46 255.624C263.003 255.348 262.433 255.21 261.751 255.21H260.064V262.062ZM269.422 263.153C269.007 263.153 268.631 263.075 268.293 262.919C267.954 262.76 267.686 262.531 267.487 262.233C267.288 261.932 267.189 261.568 267.189 261.142C267.189 260.767 267.263 260.463 267.41 260.23C267.558 259.994 267.756 259.81 268.003 259.676C268.25 259.543 268.523 259.443 268.821 259.378C269.122 259.31 269.425 259.256 269.729 259.216C270.126 259.165 270.449 259.126 270.696 259.101C270.946 259.072 271.128 259.026 271.241 258.96C271.358 258.895 271.416 258.781 271.416 258.619V258.585C271.416 258.165 271.301 257.838 271.071 257.605C270.844 257.372 270.498 257.256 270.035 257.256C269.555 257.256 269.179 257.361 268.906 257.571C268.633 257.781 268.442 258.006 268.331 258.244L267.376 257.903C267.547 257.506 267.774 257.196 268.058 256.974C268.345 256.75 268.658 256.594 268.996 256.506C269.337 256.415 269.672 256.369 270.001 256.369C270.212 256.369 270.453 256.395 270.726 256.446C271.001 256.494 271.267 256.595 271.523 256.749C271.781 256.902 271.996 257.134 272.166 257.443C272.337 257.753 272.422 258.168 272.422 258.688V263H271.416V262.114H271.365C271.297 262.256 271.183 262.408 271.024 262.57C270.865 262.732 270.653 262.869 270.389 262.983C270.125 263.097 269.802 263.153 269.422 263.153ZM269.575 262.25C269.973 262.25 270.308 262.172 270.581 262.016C270.856 261.859 271.064 261.658 271.203 261.411C271.345 261.163 271.416 260.903 271.416 260.631V259.71C271.373 259.761 271.28 259.808 271.135 259.851C270.993 259.891 270.828 259.926 270.641 259.957C270.456 259.986 270.275 260.011 270.099 260.034C269.926 260.054 269.785 260.071 269.677 260.085C269.416 260.119 269.172 260.175 268.945 260.251C268.72 260.325 268.538 260.437 268.399 260.588C268.263 260.736 268.195 260.937 268.195 261.193C268.195 261.543 268.324 261.807 268.582 261.986C268.844 262.162 269.175 262.25 269.575 262.25ZM274.671 265.455C274.5 265.455 274.348 265.44 274.215 265.412C274.081 265.386 273.989 265.361 273.938 265.335L274.193 264.449C274.438 264.511 274.654 264.534 274.841 264.517C275.029 264.5 275.195 264.416 275.34 264.266C275.487 264.118 275.622 263.878 275.745 263.545L275.932 263.034L273.512 256.455H274.603L276.409 261.67H276.478L278.284 256.455H279.375L276.597 263.955C276.472 264.293 276.317 264.572 276.132 264.794C275.948 265.018 275.733 265.185 275.489 265.293C275.247 265.401 274.975 265.455 274.671 265.455Z" fill="#CBD5E1"/>
<rect x="168.768" y="243.5" width="61" height="29" rx="14.5" fill="#0891B2" fill-opacity="0.1"/>
<rect x="168.768" y="243.5" width="61" height="29" rx="14.5" stroke="#06B6D4"/>
<path d="M189.238 262V261.233L192.119 258.08C192.457 257.71 192.735 257.389 192.954 257.116C193.173 256.841 193.334 256.582 193.44 256.341C193.548 256.097 193.602 255.841 193.602 255.574C193.602 255.267 193.528 255.001 193.38 254.777C193.235 254.553 193.036 254.379 192.783 254.257C192.53 254.135 192.246 254.074 191.931 254.074C191.596 254.074 191.303 254.143 191.053 254.283C190.806 254.419 190.614 254.611 190.478 254.858C190.344 255.105 190.278 255.395 190.278 255.727H189.272C189.272 255.216 189.39 254.767 189.626 254.381C189.861 253.994 190.182 253.693 190.589 253.477C190.998 253.261 191.457 253.153 191.965 253.153C192.477 253.153 192.93 253.261 193.325 253.477C193.719 253.693 194.029 253.984 194.254 254.351C194.478 254.717 194.59 255.125 194.59 255.574C194.59 255.895 194.532 256.209 194.415 256.516C194.302 256.82 194.103 257.159 193.819 257.534C193.538 257.906 193.147 258.361 192.647 258.898L190.687 260.994V261.062H194.744V262H189.238ZM196.111 260.21V259.341L199.947 253.273H200.577V254.619H200.151L197.254 259.205V259.273H202.418V260.21H196.111ZM200.219 262V259.946V259.541V253.273H201.225V262H200.219ZM205.038 258.062V262H204.032V253.273H205.038V256.477H205.123C205.277 256.139 205.507 255.871 205.814 255.672C206.123 255.47 206.535 255.369 207.049 255.369C207.495 255.369 207.886 255.459 208.221 255.638C208.556 255.814 208.816 256.085 209.001 256.452C209.189 256.815 209.282 257.278 209.282 257.841V262H208.277V257.909C208.277 257.389 208.142 256.987 207.872 256.703C207.605 256.416 207.234 256.273 206.76 256.273C206.43 256.273 206.135 256.342 205.873 256.482C205.615 256.621 205.41 256.824 205.26 257.091C205.112 257.358 205.038 257.682 205.038 258.062Z" fill="#06B6D4"/>
<rect x="101.17" y="243.5" width="59" height="29" rx="14.5" stroke="#334155"/>
<path d="M124.675 253.273V262H123.618V254.381H123.567L121.436 255.795V254.722L123.618 253.273H124.675ZM127.185 262V261.233L130.065 258.08C130.403 257.71 130.682 257.389 130.901 257.116C131.119 256.841 131.281 256.582 131.386 256.341C131.494 256.097 131.548 255.841 131.548 255.574C131.548 255.267 131.474 255.001 131.327 254.777C131.182 254.553 130.983 254.379 130.73 254.257C130.477 254.135 130.193 254.074 129.878 254.074C129.543 254.074 129.25 254.143 129 254.283C128.753 254.419 128.561 254.611 128.425 254.858C128.291 255.105 128.224 255.395 128.224 255.727H127.219C127.219 255.216 127.337 254.767 127.572 254.381C127.808 253.994 128.129 253.693 128.536 253.477C128.945 253.261 129.403 253.153 129.912 253.153C130.423 253.153 130.876 253.261 131.271 253.477C131.666 253.693 131.976 253.984 132.2 254.351C132.425 254.717 132.537 255.125 132.537 255.574C132.537 255.895 132.479 256.209 132.362 256.516C132.249 256.82 132.05 257.159 131.766 257.534C131.484 257.906 131.094 258.361 130.594 258.898L128.634 260.994V261.062H132.69V262H127.185ZM135.473 258.062V262H134.467V253.273H135.473V256.477H135.558C135.712 256.139 135.942 255.871 136.249 255.672C136.558 255.47 136.97 255.369 137.484 255.369C137.93 255.369 138.321 255.459 138.656 255.638C138.991 255.814 139.251 256.085 139.436 256.452C139.624 256.815 139.717 257.278 139.717 257.841V262H138.712V257.909C138.712 257.389 138.577 256.987 138.307 256.703C138.04 256.416 137.669 256.273 137.195 256.273C136.865 256.273 136.57 256.342 136.308 256.482C136.05 256.621 135.845 256.824 135.695 257.091C135.547 257.358 135.473 257.682 135.473 258.062Z" fill="#CBD5E1"/>
<rect x="40.5718" y="243.5" width="52" height="29" rx="14.5" stroke="#334155"/>
<path d="M64.2094 253.273V262H63.1526V254.381H63.1014L60.9707 255.795V254.722L63.1526 253.273H64.2094ZM67.7421 258.062V262H66.7364V253.273H67.7421V256.477H67.8273C67.9807 256.139 68.2108 255.871 68.5176 255.672C68.8273 255.47 69.2392 255.369 69.7534 255.369C70.1994 255.369 70.5901 255.459 70.9253 255.638C71.2605 255.814 71.5205 256.085 71.7051 256.452C71.8926 256.815 71.9864 257.278 71.9864 257.841V262H70.9807V257.909C70.9807 257.389 70.8457 256.987 70.5759 256.703C70.3088 256.416 69.9381 256.273 69.4636 256.273C69.1341 256.273 68.8386 256.342 68.5773 256.482C68.3188 256.621 68.1142 256.824 67.9636 257.091C67.8159 257.358 67.7421 257.682 67.7421 258.062Z" fill="#CBD5E1"/>
<path d="M34.8717 226.21V225.341L38.7069 219.273H39.3376V220.619H38.9115L36.0138 225.205V225.273H41.1785V226.21H34.8717ZM38.9797 228V225.946V225.541V219.273H39.9854V228H38.9797ZM45.6732 228.119C45.3153 228.114 44.9573 228.045 44.5993 227.915C44.2414 227.784 43.9147 227.564 43.6192 227.254C43.3238 226.942 43.0866 226.52 42.9076 225.989C42.7286 225.455 42.6391 224.784 42.6391 223.977C42.6391 223.205 42.7116 222.52 42.8564 221.923C43.0013 221.324 43.2116 220.82 43.4871 220.411C43.7627 219.999 44.0951 219.686 44.4843 219.473C44.8763 219.26 45.3181 219.153 45.8096 219.153C46.2982 219.153 46.7329 219.251 47.1135 219.447C47.4971 219.641 47.8096 219.911 48.051 220.257C48.2925 220.604 48.4488 221.003 48.5198 221.455H47.48C47.3834 221.062 47.1959 220.737 46.9175 220.479C46.6391 220.22 46.2698 220.091 45.8096 220.091C45.1334 220.091 44.6008 220.385 44.2116 220.973C43.8252 221.561 43.6306 222.386 43.6278 223.449H43.6959C43.855 223.207 44.0439 223.001 44.2627 222.831C44.4843 222.658 44.7286 222.524 44.9957 222.43C45.2627 222.337 45.5454 222.29 45.8437 222.29C46.3437 222.29 46.801 222.415 47.2158 222.665C47.6306 222.912 47.963 223.254 48.213 223.692C48.463 224.126 48.588 224.625 48.588 225.188C48.588 225.727 48.4672 226.222 48.2258 226.67C47.9843 227.116 47.6448 227.472 47.2073 227.736C46.7726 227.997 46.2613 228.125 45.6732 228.119ZM45.6732 227.182C46.0312 227.182 46.3522 227.092 46.6363 226.913C46.9232 226.734 47.1491 226.494 47.3138 226.193C47.4814 225.892 47.5653 225.557 47.5653 225.188C47.5653 224.827 47.4843 224.499 47.3224 224.203C47.1633 223.905 46.9431 223.668 46.6618 223.491C46.3834 223.315 46.0653 223.227 45.7073 223.227C45.4374 223.227 45.186 223.281 44.953 223.389C44.7201 223.494 44.5155 223.639 44.3394 223.824C44.1661 224.009 44.0297 224.22 43.9303 224.459C43.8309 224.695 43.7812 224.943 43.7812 225.205C43.7812 225.551 43.8621 225.875 44.0241 226.176C44.1888 226.477 44.4133 226.72 44.6974 226.905C44.9843 227.089 45.3096 227.182 45.6732 227.182Z" fill="#615E83"/>
<path d="M34.9655 161.324V160.455L38.8007 154.387H39.4314V155.734H39.0052L36.1075 160.319V160.387H41.2723V161.324H34.9655ZM39.0734 163.114V161.06V160.655V154.387H40.0791V163.114H39.0734ZM45.6647 163.234C45.0795 163.234 44.5624 163.13 44.1135 162.922C43.6675 162.712 43.3195 162.424 43.0695 162.057C42.8195 161.688 42.6959 161.268 42.6988 160.796C42.6959 160.427 42.7684 160.086 42.9161 159.773C43.0638 159.458 43.2655 159.195 43.5212 158.985C43.7797 158.772 44.0681 158.637 44.3863 158.58V158.529C43.9687 158.421 43.6363 158.187 43.3891 157.826C43.142 157.462 43.0198 157.049 43.0226 156.586C43.0198 156.143 43.132 155.746 43.3593 155.397C43.5866 155.047 43.8991 154.772 44.2968 154.57C44.6974 154.369 45.1533 154.268 45.6647 154.268C46.1704 154.268 46.6221 154.369 47.0198 154.57C47.4175 154.772 47.73 155.047 47.9573 155.397C48.1874 155.746 48.3039 156.143 48.3067 156.586C48.3039 157.049 48.1775 157.462 47.9275 157.826C47.6803 158.187 47.3522 158.421 46.9431 158.529V158.58C47.2584 158.637 47.5425 158.772 47.7954 158.985C48.0482 159.195 48.2499 159.458 48.4005 159.773C48.551 160.086 48.6278 160.427 48.6306 160.796C48.6278 161.268 48.4999 161.688 48.2471 162.057C47.9971 162.424 47.6491 162.712 47.203 162.922C46.7599 163.13 46.2471 163.234 45.6647 163.234ZM45.6647 162.296C46.0596 162.296 46.4005 162.232 46.6874 162.104C46.9743 161.976 47.1959 161.796 47.3522 161.563C47.5084 161.33 47.588 161.057 47.5908 160.745C47.588 160.415 47.5028 160.124 47.3351 159.871C47.1675 159.619 46.9388 159.42 46.6491 159.275C46.3621 159.13 46.034 159.057 45.6647 159.057C45.2925 159.057 44.9601 159.13 44.6675 159.275C44.3778 159.42 44.1491 159.619 43.9814 159.871C43.8167 160.124 43.7357 160.415 43.7385 160.745C43.7357 161.057 43.811 161.33 43.9644 161.563C44.1206 161.796 44.3437 161.976 44.6334 162.104C44.9232 162.232 45.267 162.296 45.6647 162.296ZM45.6647 158.154C45.9772 158.154 46.2542 158.092 46.4957 157.967C46.74 157.842 46.9317 157.667 47.0709 157.442C47.2101 157.218 47.2812 156.955 47.284 156.654C47.2812 156.359 47.2116 156.101 47.0752 155.883C46.9388 155.661 46.7499 155.491 46.5084 155.371C46.267 155.249 45.9857 155.188 45.6647 155.188C45.338 155.188 45.0525 155.249 44.8081 155.371C44.5638 155.491 44.3749 155.661 44.2414 155.883C44.1079 156.101 44.0425 156.359 44.0454 156.654C44.0425 156.955 44.1093 157.218 44.2456 157.442C44.3849 157.667 44.5766 157.842 44.8209 157.967C45.0653 158.092 45.3465 158.154 45.6647 158.154Z" fill="#615E83"/>
<path d="M35.5045 193.543V192.674L39.3398 186.605H39.9704V187.952H39.5443L36.6466 192.537V192.605H41.8113V193.543H35.5045ZM39.6125 195.333V193.279V192.874V186.605H40.6182V195.333H39.6125ZM43.681 195.333L47.5844 187.611V187.543H43.0844V186.605H48.6753V187.594L44.789 195.333H43.681Z" fill="#615E83"/>
<path d="M34.8717 129.106V128.237L38.7069 122.168H39.3376V123.515H38.9115L36.0138 128.1V128.168H41.1785V129.106H34.8717ZM38.9797 130.896V128.842V128.437V122.168H39.9854V130.896H38.9797ZM45.5539 122.049C45.9118 122.052 46.2698 122.12 46.6278 122.254C46.9857 122.387 47.3124 122.609 47.6079 122.918C47.9033 123.225 48.1405 123.644 48.3195 124.176C48.4985 124.707 48.588 125.373 48.588 126.174C48.588 126.95 48.5141 127.639 48.3664 128.241C48.2215 128.84 48.0113 129.346 47.7357 129.758C47.463 130.17 47.1306 130.482 46.7385 130.695C46.3493 130.909 45.909 131.015 45.4175 131.015C44.9289 131.015 44.4928 130.918 44.1093 130.725C43.7286 130.529 43.4161 130.258 43.1718 129.911C42.9303 129.562 42.7755 129.157 42.7073 128.697H43.7471C43.8408 129.097 44.0269 129.428 44.3053 129.69C44.5866 129.948 44.9573 130.078 45.4175 130.078C46.0908 130.078 46.6221 129.784 47.0113 129.195C47.4033 128.607 47.5993 127.776 47.5993 126.703H47.5312C47.3721 126.941 47.1832 127.147 46.9644 127.32C46.7457 127.494 46.5028 127.627 46.2357 127.721C45.9687 127.815 45.6846 127.862 45.3834 127.862C44.8834 127.862 44.4246 127.738 44.007 127.491C43.5922 127.241 43.2599 126.899 43.0099 126.464C42.7627 126.026 42.6391 125.526 42.6391 124.964C42.6391 124.43 42.7584 123.941 42.9971 123.498C43.2385 123.052 43.5766 122.697 44.0113 122.433C44.4488 122.168 44.963 122.041 45.5539 122.049ZM45.5539 122.987C45.1959 122.987 44.8735 123.076 44.5866 123.255C44.3025 123.431 44.0766 123.67 43.909 123.971C43.7442 124.269 43.6618 124.6 43.6618 124.964C43.6618 125.328 43.7414 125.659 43.9005 125.957C44.0624 126.252 44.2826 126.488 44.561 126.664C44.8422 126.838 45.1618 126.924 45.5198 126.924C45.7897 126.924 46.0411 126.872 46.2741 126.766C46.507 126.659 46.7101 126.512 46.8834 126.328C47.0596 126.14 47.1974 125.928 47.2968 125.693C47.3962 125.454 47.4459 125.205 47.4459 124.947C47.4459 124.606 47.3635 124.286 47.1988 123.988C47.0368 123.69 46.8124 123.448 46.5255 123.264C46.2414 123.079 45.9175 122.987 45.5539 122.987Z" fill="#615E83"/>
<path d="M38.1903 99.9941C37.6903 99.9941 37.24 99.8946 36.8394 99.6958C36.4388 99.4969 36.1178 99.2242 35.8763 98.8776C35.6349 98.531 35.5028 98.1361 35.48 97.6929H36.5028C36.5425 98.0878 36.7215 98.4145 37.0397 98.6731C37.3607 98.9287 37.7442 99.0566 38.1903 99.0566C38.5482 99.0566 38.8664 98.9728 39.1448 98.8052C39.426 98.6375 39.6462 98.4074 39.8053 98.1148C39.9672 97.8194 40.0482 97.4856 40.0482 97.1134C40.0482 96.7327 39.9644 96.3932 39.7968 96.0949C39.632 95.7938 39.4047 95.5566 39.115 95.3833C38.8252 95.21 38.4942 95.1219 38.1221 95.1191C37.855 95.1162 37.5809 95.1574 37.2996 95.2427C37.0184 95.325 36.7868 95.4316 36.605 95.5623L35.6164 95.4429L36.1448 91.1475H40.6789V92.085H37.0312L36.7243 94.6588H36.7755C36.9545 94.5168 37.1789 94.3989 37.4488 94.3052C37.7187 94.2114 37.9999 94.1645 38.2925 94.1645C38.8266 94.1645 39.3025 94.2924 39.7201 94.5481C40.1405 94.8009 40.4701 95.1475 40.7087 95.5878C40.9502 96.0282 41.0709 96.531 41.0709 97.0963C41.0709 97.6532 40.9459 98.1503 40.6959 98.5878C40.4488 99.0225 40.1079 99.3662 39.6732 99.6191C39.2385 99.8691 38.7442 99.9941 38.1903 99.9941ZM45.6104 99.9941C44.9683 99.9941 44.4214 99.8194 43.9697 99.4699C43.518 99.1177 43.1729 98.6077 42.9342 97.9401C42.6956 97.2696 42.5763 96.46 42.5763 95.5111C42.5763 94.5679 42.6956 93.7625 42.9342 93.0949C43.1757 92.4245 43.5223 91.9131 43.974 91.5608C44.4285 91.2057 44.974 91.0282 45.6104 91.0282C46.2467 91.0282 46.7907 91.2057 47.2425 91.5608C47.697 91.9131 48.0436 92.4245 48.2822 93.0949C48.5237 93.7625 48.6444 94.5679 48.6444 95.5111C48.6444 96.46 48.5251 97.2696 48.2865 97.9401C48.0479 98.6077 47.7027 99.1177 47.251 99.4699C46.7993 99.8194 46.2524 99.9941 45.6104 99.9941ZM45.6104 99.0566C46.2467 99.0566 46.741 98.7498 47.0933 98.1361C47.4456 97.5225 47.6217 96.6475 47.6217 95.5111C47.6217 94.7554 47.5407 94.112 47.3788 93.5807C47.2197 93.0495 46.9896 92.6446 46.6885 92.3662C46.3902 92.0878 46.0308 91.9486 45.6104 91.9486C44.9797 91.9486 44.4868 92.2597 44.1317 92.8819C43.7765 93.5012 43.599 94.3776 43.599 95.5111C43.599 96.2668 43.6785 96.9088 43.8376 97.4373C43.9967 97.9657 44.2254 98.3677 44.5237 98.6432C44.8248 98.9188 45.1871 99.0566 45.6104 99.0566Z" fill="#615E83"/>
<line x1="61.1104" y1="223.25" x2="299.116" y2="223.25" stroke="#334155" stroke-width="1.5" stroke-linecap="round"/>
<line x1="61.1104" y1="190.583" x2="299.116" y2="190.583" stroke="#334155" stroke-width="1.5" stroke-linecap="round"/>
<line x1="61.1104" y1="158.81" x2="299.116" y2="158.81" stroke="#334155" stroke-width="1.5" stroke-linecap="round" stroke-dasharray="4 7"/>
<line x1="61.1104" y1="127.036" x2="299.116" y2="127.036" stroke="#334155" stroke-width="1.5" stroke-linecap="round"/>
<line x1="61.1104" y1="95.6931" x2="299.116" y2="95.6931" stroke="#334155" stroke-width="1.5" stroke-linecap="round"/>
<rect x="62.1926" y="94.7157" width="2.34676" height="77.1377" rx="1.17338" fill="#C893FD"/>
<rect x="60.3604" y="108.732" width="6.01898" height="48.5314" rx="3.00949" fill="#8B5CF6"/>
<rect x="269.955" y="95.7573" width="2.34676" height="100.388" rx="1.17338" fill="#C893FD"/>
<rect x="268.121" y="113.997" width="6.01898" height="63.1592" rx="3.00949" fill="#8B5CF6"/>
<rect x="295.68" y="94.373" width="2.34676" height="85.4553" rx="1.17338" fill="#C893FD"/>
<rect x="293.847" y="114.747" width="6.01898" height="53.3792" rx="3.00949" fill="#8B5CF6"/>
<rect x="165.992" y="130.686" width="2.34676" height="72.5033" rx="1.17338" fill="#C893FD"/>
<rect x="164.16" y="149.605" width="6.01898" height="44.4969" rx="3.00949" fill="#8B5CF6"/>
<rect x="191.86" y="113.837" width="2.34676" height="66.966" rx="1.17338" fill="#C893FD"/>
<rect x="190.027" y="130.686" width="6.01898" height="43.3419" rx="3.00949" fill="#8B5CF6"/>
<rect x="88.061" y="110.358" width="2.34676" height="58.8419" rx="1.17338" fill="#FFFBEB"/>
<rect x="86.2275" y="127.994" width="6.01898" height="35.9148" rx="3.00949" fill="#F59E0B"/>
<rect x="113.928" y="123.825" width="2.34676" height="79.3647" rx="1.17338" fill="#FFFBEB"/>
<rect x="112.096" y="141.782" width="6.01898" height="46.4965" rx="3.00949" fill="#F59E0B"/>
<rect x="244.148" y="125.589" width="2.34676" height="98.4113" rx="1.17338" fill="#FFFBEB"/>
<rect x="242.315" y="143.673" width="6.01898" height="59.5164" rx="3.00949" fill="#F59E0B"/>
<rect x="139.96" y="140.146" width="2.34676" height="79.3647" rx="1.17338" fill="#FFFBEB"/>
<rect x="138.128" y="156.82" width="6.01898" height="41.2056" rx="3.00949" fill="#F59E0B"/>
<rect x="217.728" y="110.969" width="2.34676" height="78.2383" rx="1.17338" fill="#FFFBEB"/>
<rect x="215.896" y="119.623" width="6.01898" height="41.5264" rx="3.00949" fill="#F59E0B"/>
<path d="M38.2484 72.6364V56.2727H39.2967V72.6364H38.2484ZM41.0289 61.674C40.9778 61.1584 40.7583 60.7578 40.3705 60.4723C39.9827 60.1868 39.4565 60.044 38.7917 60.044C38.34 60.044 37.9586 60.108 37.6475 60.2358C37.3364 60.3594 37.0978 60.532 36.9316 60.7536C36.7697 60.9751 36.6887 61.2266 36.6887 61.5078C36.6802 61.7422 36.7292 61.9467 36.8357 62.1214C36.9465 62.2962 37.0978 62.4474 37.2896 62.5753C37.4813 62.6989 37.7029 62.8075 37.9543 62.9013C38.2057 62.9908 38.4742 63.0675 38.7597 63.1314L39.9359 63.4126C40.5069 63.5405 41.031 63.7109 41.5083 63.924C41.9856 64.1371 42.3989 64.3991 42.7484 64.7102C43.0978 65.0213 43.3684 65.3878 43.5601 65.8097C43.7562 66.2315 43.8563 66.7152 43.8606 67.2607C43.8563 68.0618 43.6518 68.7564 43.2469 69.3445C42.8464 69.9283 42.2668 70.3821 41.5083 70.706C40.754 71.0256 39.8442 71.1854 38.7789 71.1854C37.7221 71.1854 36.8016 71.0234 36.0175 70.6996C35.2377 70.3757 34.6283 69.8963 34.1894 69.2614C33.7547 68.6222 33.5268 67.8317 33.5055 66.8899H36.1837C36.2136 67.3288 36.3393 67.6953 36.5609 67.9893C36.7867 68.2791 37.0871 68.4986 37.4621 68.6477C37.8414 68.7926 38.2697 68.8651 38.7469 68.8651C39.2157 68.8651 39.6226 68.7969 39.9678 68.6605C40.3172 68.5241 40.5878 68.3345 40.7796 68.0916C40.9714 67.8487 41.0673 67.5696 41.0673 67.2543C41.0673 66.9602 40.9799 66.7131 40.8052 66.5128C40.6347 66.3125 40.3833 66.142 40.0509 66.0014C39.7228 65.8608 39.3201 65.733 38.8428 65.6179L37.4174 65.2599C36.3137 64.9915 35.4422 64.5717 34.803 64.0007C34.1638 63.4297 33.8464 62.6605 33.8506 61.6932C33.8464 60.9006 34.0573 60.2081 34.4834 59.6158C34.9138 59.0234 35.504 58.5611 36.254 58.2287C37.004 57.8963 37.8563 57.7301 38.8109 57.7301C39.7824 57.7301 40.6305 57.8963 41.3549 58.2287C42.0836 58.5611 42.6503 59.0234 43.0552 59.6158C43.46 60.2081 43.6688 60.8942 43.6816 61.674H41.0289ZM45.4474 68.6989V66.5192L50.9126 57.9091H52.7919V60.9261H51.6796L48.2343 66.3786V66.4808H56.0007V68.6989H45.4474ZM51.7308 71V68.0341L51.7819 67.0689V57.9091H54.3771V71H51.7308ZM58.3625 71L63.7894 60.2614V60.1719H57.4676V57.9091H66.653V60.2038L61.2198 71H58.3625ZM73.1106 57.7301C73.7839 57.7301 74.4316 57.843 75.0538 58.0689C75.6802 58.2947 76.2384 58.6548 76.7285 59.1491C77.2228 59.6435 77.6127 60.2997 77.8982 61.1179C78.188 61.9318 78.335 62.9311 78.3393 64.1158C78.3393 65.228 78.2136 66.2209 77.9621 67.0945C77.715 67.9638 77.3592 68.7031 76.8947 69.3125C76.4302 69.9219 75.8698 70.3864 75.2136 70.706C74.5573 71.0213 73.8244 71.179 73.0147 71.179C72.1411 71.179 71.3698 71.0107 70.7008 70.674C70.0317 70.3331 69.4927 69.8707 69.0836 69.2869C68.6788 68.6989 68.4337 68.0384 68.3485 67.3054H71.0779C71.1844 67.7827 71.4082 68.1534 71.7491 68.4176C72.09 68.6776 72.5119 68.8075 73.0147 68.8075C73.867 68.8075 74.5147 68.4368 74.9579 67.6953C75.4011 66.9496 75.6248 65.929 75.629 64.6335H75.5396C75.3435 65.017 75.0793 65.3473 74.7469 65.6243C74.4146 65.897 74.0332 66.108 73.6028 66.2571C73.1766 66.4062 72.7228 66.4808 72.2413 66.4808C71.4699 66.4808 70.7817 66.2997 70.1766 65.9375C69.5715 65.5753 69.0942 65.0767 68.7448 64.4418C68.3954 63.8068 68.2207 63.0824 68.2207 62.2685C68.2164 61.3906 68.4188 60.6087 68.8279 59.9226C69.237 59.2365 69.808 58.6996 70.541 58.3118C71.2782 57.9197 72.1347 57.7259 73.1106 57.7301ZM73.1297 59.9034C72.6994 59.9034 72.3158 60.0057 71.9792 60.2102C71.6468 60.4148 71.3826 60.6896 71.1866 61.0348C70.9948 61.38 70.9011 61.7656 70.9053 62.1918C70.9053 62.6222 70.9991 63.0099 71.1866 63.3551C71.3783 63.696 71.6383 63.9687 71.9664 64.1733C72.2988 64.3736 72.678 64.4737 73.1042 64.4737C73.4238 64.4737 73.7199 64.4141 73.9927 64.2947C74.2654 64.1754 74.5019 64.0114 74.7022 63.8026C74.9067 63.5895 75.0665 63.3445 75.1816 63.0675C75.2967 62.7905 75.3542 62.4964 75.3542 62.1854C75.3499 61.772 75.2519 61.3928 75.0601 61.0476C74.8684 60.7024 74.6042 60.4254 74.2675 60.2166C73.9309 60.0078 73.5516 59.9034 73.1297 59.9034ZM81.3467 71.1662C80.9248 71.1662 80.5626 71.017 80.2601 70.7188C79.9618 70.4162 79.8126 70.054 79.8126 69.6321C79.8126 69.2145 79.9618 68.8565 80.2601 68.5582C80.5626 68.2599 80.9248 68.1108 81.3467 68.1108C81.7558 68.1108 82.1138 68.2599 82.4206 68.5582C82.7274 68.8565 82.8808 69.2145 82.8808 69.6321C82.8808 69.9134 82.8084 70.1712 82.6635 70.4055C82.5229 70.6357 82.3375 70.821 82.1074 70.9616C81.8773 71.098 81.6237 71.1662 81.3467 71.1662ZM89.1514 57.9091V71H86.3837V60.5362H86.307L83.3091 62.4155V59.9609L86.5498 57.9091H89.1514ZM97.1463 71.179C96.1619 71.179 95.2862 71.0192 94.5191 70.6996C93.7563 70.3757 93.1576 69.9347 92.723 69.3764C92.2883 68.8182 92.071 68.1854 92.071 67.478C92.071 66.9325 92.1946 66.4318 92.4417 65.9759C92.6931 65.5156 93.034 65.1342 93.4644 64.8317C93.8948 64.5249 94.3764 64.3288 94.909 64.2436V64.1541C94.2102 64.0135 93.6434 63.6747 93.2088 63.1378C92.7741 62.5966 92.5568 61.968 92.5568 61.2521C92.5568 60.5746 92.7549 59.9716 93.1512 59.4432C93.5475 58.9105 94.0909 58.4929 94.7812 58.1903C95.4758 57.8835 96.2642 57.7301 97.1463 57.7301C98.0284 57.7301 98.8146 57.8835 99.5049 58.1903C100.2 58.4972 100.745 58.9169 101.141 59.4496C101.538 59.978 101.738 60.5788 101.742 61.2521C101.738 61.9723 101.516 62.6009 101.077 63.1378C100.638 63.6747 100.076 64.0135 99.3899 64.1541V64.2436C99.914 64.3288 100.389 64.5249 100.815 64.8317C101.246 65.1342 101.587 65.5156 101.838 65.9759C102.094 66.4318 102.224 66.9325 102.228 67.478C102.224 68.1854 102.004 68.8182 101.57 69.3764C101.135 69.9347 100.534 70.3757 99.767 70.6996C99.0042 71.0192 98.1306 71.179 97.1463 71.179ZM97.1463 69.1463C97.5852 69.1463 97.9687 69.0675 98.2968 68.9098C98.625 68.7479 98.8806 68.5263 99.0639 68.245C99.2514 67.9595 99.3451 67.6314 99.3451 67.2607C99.3451 66.8814 99.2492 66.5469 99.0575 66.2571C98.8657 65.9631 98.6058 65.733 98.2777 65.5668C97.9495 65.3963 97.5724 65.3111 97.1463 65.3111C96.7244 65.3111 96.3473 65.3963 96.0149 65.5668C95.6825 65.733 95.4204 65.9631 95.2286 66.2571C95.0411 66.5469 94.9474 66.8814 94.9474 67.2607C94.9474 67.6314 95.039 67.9595 95.2223 68.245C95.4055 68.5263 95.6633 68.7479 95.9957 68.9098C96.3281 69.0675 96.7116 69.1463 97.1463 69.1463ZM97.1463 63.2976C97.5127 63.2976 97.8387 63.223 98.1242 63.0739C98.4098 62.9247 98.6335 62.718 98.7954 62.4538C98.9573 62.1896 99.0383 61.8849 99.0383 61.5398C99.0383 61.1989 98.9573 60.9006 98.7954 60.6449C98.6335 60.3849 98.4119 60.1825 98.1306 60.0376C97.8494 59.8885 97.5213 59.8139 97.1463 59.8139C96.7755 59.8139 96.4474 59.8885 96.1619 60.0376C95.8764 60.1825 95.6527 60.3849 95.4907 60.6449C95.3331 60.9006 95.2542 61.1989 95.2542 61.5398C95.2542 61.8849 95.3352 62.1896 95.4971 62.4538C95.659 62.718 95.8828 62.9247 96.1683 63.0739C96.4538 63.223 96.7798 63.2976 97.1463 63.2976Z" fill="#F8FAFC"/>
<path d="M34.0365 35.9119V34.8182H41.6729V35.9119H38.4711V45H37.2382V35.9119H34.0365ZM44.6247 45.179C44.1408 45.179 43.7017 45.0878 43.3073 44.9055C42.9128 44.7199 42.5996 44.4531 42.3676 44.1051C42.1356 43.7538 42.0196 43.3295 42.0196 42.8324C42.0196 42.3949 42.1058 42.0402 42.2781 41.7685C42.4505 41.4934 42.6808 41.2779 42.9692 41.1222C43.2575 40.9664 43.5757 40.8504 43.9237 40.7741C44.2751 40.6946 44.628 40.6316 44.9827 40.5852C45.4467 40.5256 45.8229 40.4808 46.1112 40.451C46.4029 40.4179 46.615 40.3632 46.7476 40.2869C46.8835 40.2107 46.9514 40.0781 46.9514 39.8892V39.8494C46.9514 39.3589 46.8172 38.9777 46.5487 38.706C46.2836 38.4342 45.8809 38.2983 45.3406 38.2983C44.7805 38.2983 44.3414 38.4209 44.0232 38.6662C43.705 38.9115 43.4813 39.1733 43.352 39.4517L42.2384 39.054C42.4372 38.59 42.7024 38.2287 43.0338 37.9702C43.3686 37.7083 43.7332 37.526 44.1276 37.4233C44.5253 37.3172 44.9164 37.2642 45.3009 37.2642C45.5461 37.2642 45.8279 37.294 46.146 37.3537C46.4675 37.41 46.7774 37.5277 47.0757 37.7067C47.3773 37.8857 47.6276 38.1558 47.8264 38.517C48.0253 38.8783 48.1247 39.3622 48.1247 39.9688V45H46.9514V43.9659H46.8918C46.8122 44.1316 46.6797 44.3089 46.4941 44.4979C46.3084 44.6868 46.0615 44.8475 45.7533 44.9801C45.445 45.1127 45.0689 45.179 44.6247 45.179ZM44.8037 44.125C45.2677 44.125 45.6588 44.0339 45.977 43.8516C46.2985 43.6693 46.5405 43.4339 46.7029 43.1456C46.8686 42.8572 46.9514 42.554 46.9514 42.2358V41.1619C46.9017 41.2216 46.7923 41.2763 46.6233 41.326C46.4576 41.3724 46.2654 41.4138 46.0466 41.4503C45.8312 41.4834 45.6207 41.5133 45.4152 41.5398C45.213 41.563 45.049 41.5829 44.923 41.5994C44.6181 41.6392 44.3331 41.7038 44.0679 41.7933C43.8061 41.8795 43.594 42.0104 43.4316 42.1861C43.2725 42.3584 43.1929 42.5937 43.1929 42.892C43.1929 43.2997 43.3437 43.608 43.6453 43.8168C43.9503 44.0223 44.3364 44.125 44.8037 44.125ZM50.2662 45V37.3636H51.4395V45H50.2662ZM50.8628 36.0909C50.6341 36.0909 50.4369 36.013 50.2712 35.8572C50.1088 35.7015 50.0276 35.5142 50.0276 35.2955C50.0276 35.0767 50.1088 34.8894 50.2712 34.7337C50.4369 34.5779 50.6341 34.5 50.8628 34.5C51.0915 34.5 51.2871 34.5779 51.4495 34.7337C51.6152 34.8894 51.6981 35.0767 51.6981 35.2955C51.6981 35.5142 51.6152 35.7015 51.4495 35.8572C51.2871 36.013 51.0915 36.0909 50.8628 36.0909ZM54.7618 34.8182V45H53.5885V34.8182H54.7618ZM58.6409 45L56.3142 37.3636H57.5471L59.1977 43.2102H59.2773L60.9079 37.3636H62.1608L63.7716 43.1903H63.8511L65.5017 37.3636H66.7346L64.4079 45H63.2545L61.5841 39.1335H61.4648L59.7943 45H58.6409ZM68.2858 45V37.3636H69.4591V45H68.2858ZM68.8824 36.0909C68.6537 36.0909 68.4565 36.013 68.2907 35.8572C68.1283 35.7015 68.0471 35.5142 68.0471 35.2955C68.0471 35.0767 68.1283 34.8894 68.2907 34.7337C68.4565 34.5779 68.6537 34.5 68.8824 34.5C69.1111 34.5 69.3066 34.5779 69.469 34.7337C69.6347 34.8894 69.7176 35.0767 69.7176 35.2955C69.7176 35.5142 69.6347 35.7015 69.469 35.8572C69.3066 36.013 69.1111 36.0909 68.8824 36.0909ZM72.7813 40.4062V45H71.608V37.3636H72.7416V38.5568H72.841C73.02 38.169 73.2918 37.8575 73.6563 37.6222C74.0209 37.3835 74.4916 37.2642 75.0683 37.2642C75.5853 37.2642 76.0377 37.3703 76.4255 37.5824C76.8133 37.7912 77.1149 38.1094 77.3303 38.5369C77.5458 38.9612 77.6535 39.4981 77.6535 40.1477V45H76.4802V40.2273C76.4802 39.6274 76.3244 39.16 76.0129 38.8253C75.7013 38.4872 75.2738 38.3182 74.7302 38.3182C74.3557 38.3182 74.0209 38.3994 73.7259 38.5618C73.4343 38.7242 73.2039 38.9612 73.0349 39.2727C72.8659 39.5843 72.7813 39.9621 72.7813 40.4062ZM82.681 45.1591C82.0447 45.1591 81.4829 44.9983 80.9956 44.6768C80.5084 44.352 80.1273 43.8946 79.8522 43.3047C79.5771 42.7114 79.4395 42.0104 79.4395 41.2017C79.4395 40.3996 79.5771 39.7036 79.8522 39.1136C80.1273 38.5237 80.5101 38.0679 81.0006 37.7464C81.4912 37.425 82.0579 37.2642 82.7009 37.2642C83.1981 37.2642 83.5908 37.3471 83.8792 37.5128C84.1708 37.6752 84.3929 37.8608 84.5454 38.0696C84.7011 38.2751 84.8221 38.4441 84.9083 38.5767H85.0077V34.8182H86.181V45H85.0475V43.8267H84.9083C84.8221 43.9659 84.6995 44.1416 84.5404 44.3537C84.3813 44.5625 84.1543 44.7498 83.8593 44.9155C83.5643 45.0779 83.1715 45.1591 82.681 45.1591ZM82.8401 44.1051C83.3108 44.1051 83.7085 43.9825 84.0333 43.7372C84.3581 43.4886 84.605 43.1456 84.7741 42.7081C84.9431 42.2673 85.0276 41.7585 85.0276 41.1818C85.0276 40.6117 84.9448 40.1129 84.779 39.6854C84.6133 39.2545 84.368 38.9197 84.0432 38.6811C83.7184 38.4392 83.3174 38.3182 82.8401 38.3182C82.343 38.3182 81.9287 38.4458 81.5972 38.701C81.2691 38.9529 81.0222 39.2959 80.8564 39.7301C80.694 40.161 80.6128 40.6449 80.6128 41.1818C80.6128 41.7254 80.6957 42.2192 80.8614 42.6634C81.0305 43.1042 81.279 43.4555 81.6072 43.7173C81.9386 43.9759 82.3496 44.1051 82.8401 44.1051ZM99.2712 34.8182H100.504V41.5597C100.504 42.2557 100.34 42.8771 100.012 43.424C99.6872 43.9676 99.2281 44.3968 98.6349 44.7116C98.0416 45.0232 97.3456 45.179 96.5468 45.179C95.748 45.179 95.052 45.0232 94.4587 44.7116C93.8654 44.3968 93.4047 43.9676 93.0766 43.424C92.7518 42.8771 92.5894 42.2557 92.5894 41.5597V34.8182H93.8224V41.4602C93.8224 41.9574 93.9317 42.3999 94.1505 42.7876C94.3692 43.1721 94.6808 43.4754 95.0851 43.6974C95.4928 43.9162 95.98 44.0256 96.5468 44.0256C97.1135 44.0256 97.6008 43.9162 98.0084 43.6974C98.4161 43.4754 98.7277 43.1721 98.9431 42.7876C99.1618 42.3999 99.2712 41.9574 99.2712 41.4602V34.8182ZM104.199 34.8182V45H102.966V34.8182H104.199Z" fill="#94A3B8"/>
</g>
</svg>
