<svg width="291" height="261" viewBox="0 0 291 261" fill="none" xmlns="http://www.w3.org/2000/svg">
<g opacity="0.6">
<rect x="216.366" y="219.5" width="61" height="31" rx="15.5" stroke="#334155"/>
<path d="M239.7 239H237.007V230.273H239.82C240.666 230.273 241.391 230.447 241.993 230.797C242.595 231.143 243.057 231.642 243.378 232.293C243.699 232.94 243.859 233.716 243.859 234.619C243.859 235.528 243.697 236.311 243.373 236.967C243.05 237.621 242.578 238.124 241.959 238.476C241.339 238.825 240.587 239 239.7 239ZM238.064 238.062H239.632C240.354 238.062 240.952 237.923 241.426 237.645C241.9 237.366 242.254 236.97 242.487 236.456C242.72 235.942 242.837 235.33 242.837 234.619C242.837 233.915 242.722 233.308 242.491 232.8C242.261 232.288 241.918 231.896 241.46 231.624C241.003 231.348 240.433 231.21 239.751 231.21H238.064V238.062ZM247.422 239.153C247.007 239.153 246.631 239.075 246.293 238.919C245.954 238.76 245.686 238.531 245.487 238.233C245.288 237.932 245.189 237.568 245.189 237.142C245.189 236.767 245.263 236.463 245.41 236.23C245.558 235.994 245.756 235.81 246.003 235.676C246.25 235.543 246.523 235.443 246.821 235.378C247.122 235.31 247.425 235.256 247.729 235.216C248.126 235.165 248.449 235.126 248.696 235.101C248.946 235.072 249.128 235.026 249.241 234.96C249.358 234.895 249.416 234.781 249.416 234.619V234.585C249.416 234.165 249.301 233.838 249.071 233.605C248.844 233.372 248.498 233.256 248.035 233.256C247.555 233.256 247.179 233.361 246.906 233.571C246.633 233.781 246.442 234.006 246.331 234.244L245.376 233.903C245.547 233.506 245.774 233.196 246.058 232.974C246.345 232.75 246.658 232.594 246.996 232.506C247.337 232.415 247.672 232.369 248.001 232.369C248.212 232.369 248.453 232.395 248.726 232.446C249.001 232.494 249.267 232.595 249.523 232.749C249.781 232.902 249.996 233.134 250.166 233.443C250.337 233.753 250.422 234.168 250.422 234.688V239H249.416V238.114H249.365C249.297 238.256 249.183 238.408 249.024 238.57C248.865 238.732 248.653 238.869 248.389 238.983C248.125 239.097 247.802 239.153 247.422 239.153ZM247.575 238.25C247.973 238.25 248.308 238.172 248.581 238.016C248.856 237.859 249.064 237.658 249.203 237.411C249.345 237.163 249.416 236.903 249.416 236.631V235.71C249.373 235.761 249.28 235.808 249.135 235.851C248.993 235.891 248.828 235.926 248.641 235.957C248.456 235.986 248.275 236.011 248.099 236.034C247.926 236.054 247.785 236.071 247.677 236.085C247.416 236.119 247.172 236.175 246.945 236.251C246.72 236.325 246.538 236.437 246.399 236.588C246.263 236.736 246.195 236.937 246.195 237.193C246.195 237.543 246.324 237.807 246.582 237.986C246.844 238.162 247.175 238.25 247.575 238.25ZM252.671 241.455C252.5 241.455 252.348 241.44 252.215 241.412C252.081 241.386 251.989 241.361 251.938 241.335L252.193 240.449C252.438 240.511 252.654 240.534 252.841 240.517C253.029 240.5 253.195 240.416 253.34 240.266C253.487 240.118 253.622 239.878 253.745 239.545L253.932 239.034L251.512 232.455H252.603L254.409 237.67H254.478L256.284 232.455H257.375L254.597 239.955C254.472 240.293 254.317 240.572 254.132 240.794C253.948 241.018 253.733 241.185 253.489 241.293C253.247 241.401 252.975 241.455 252.671 241.455Z" fill="#CBD5E1"/>
<rect x="146.768" y="219.5" width="61" height="29" rx="14.5" fill="#0891B2" fill-opacity="0.1"/>
<rect x="146.768" y="219.5" width="61" height="29" rx="14.5" stroke="#06B6D4"/>
<path d="M167.238 238V237.233L170.119 234.08C170.457 233.71 170.735 233.389 170.954 233.116C171.173 232.841 171.334 232.582 171.44 232.341C171.548 232.097 171.602 231.841 171.602 231.574C171.602 231.267 171.528 231.001 171.38 230.777C171.235 230.553 171.036 230.379 170.783 230.257C170.53 230.135 170.246 230.074 169.931 230.074C169.596 230.074 169.303 230.143 169.053 230.283C168.806 230.419 168.614 230.611 168.478 230.858C168.344 231.105 168.278 231.395 168.278 231.727H167.272C167.272 231.216 167.39 230.767 167.626 230.381C167.861 229.994 168.182 229.693 168.589 229.477C168.998 229.261 169.457 229.153 169.965 229.153C170.477 229.153 170.93 229.261 171.325 229.477C171.719 229.693 172.029 229.984 172.254 230.351C172.478 230.717 172.59 231.125 172.59 231.574C172.59 231.895 172.532 232.209 172.415 232.516C172.302 232.82 172.103 233.159 171.819 233.534C171.538 233.906 171.147 234.361 170.647 234.898L168.687 236.994V237.062H172.744V238H167.238ZM174.111 236.21V235.341L177.947 229.273H178.577V230.619H178.151L175.254 235.205V235.273H180.418V236.21H174.111ZM178.219 238V235.946V235.541V229.273H179.225V238H178.219ZM183.038 234.062V238H182.032V229.273H183.038V232.477H183.123C183.277 232.139 183.507 231.871 183.814 231.672C184.123 231.47 184.535 231.369 185.049 231.369C185.495 231.369 185.886 231.459 186.221 231.638C186.556 231.814 186.816 232.085 187.001 232.452C187.189 232.815 187.282 233.278 187.282 233.841V238H186.277V233.909C186.277 233.389 186.142 232.987 185.872 232.703C185.605 232.416 185.234 232.273 184.76 232.273C184.43 232.273 184.135 232.342 183.873 232.482C183.615 232.621 183.41 232.824 183.26 233.091C183.112 233.358 183.038 233.682 183.038 234.062Z" fill="#06B6D4"/>
<rect x="79.1699" y="219.5" width="59" height="29" rx="14.5" stroke="#334155"/>
<path d="M102.675 229.273V238H101.618V230.381H101.567L99.4361 231.795V230.722L101.618 229.273H102.675ZM105.185 238V237.233L108.065 234.08C108.403 233.71 108.682 233.389 108.901 233.116C109.119 232.841 109.281 232.582 109.386 232.341C109.494 232.097 109.548 231.841 109.548 231.574C109.548 231.267 109.474 231.001 109.327 230.777C109.182 230.553 108.983 230.379 108.73 230.257C108.477 230.135 108.193 230.074 107.878 230.074C107.543 230.074 107.25 230.143 107 230.283C106.753 230.419 106.561 230.611 106.425 230.858C106.291 231.105 106.224 231.395 106.224 231.727H105.219C105.219 231.216 105.337 230.767 105.572 230.381C105.808 229.994 106.129 229.693 106.536 229.477C106.945 229.261 107.403 229.153 107.912 229.153C108.423 229.153 108.876 229.261 109.271 229.477C109.666 229.693 109.976 229.984 110.2 230.351C110.425 230.717 110.537 231.125 110.537 231.574C110.537 231.895 110.479 232.209 110.362 232.516C110.249 232.82 110.05 233.159 109.766 233.534C109.484 233.906 109.094 234.361 108.594 234.898L106.634 236.994V237.062H110.69V238H105.185ZM113.473 234.062V238H112.467V229.273H113.473V232.477H113.558C113.712 232.139 113.942 231.871 114.249 231.672C114.558 231.47 114.97 231.369 115.484 231.369C115.93 231.369 116.321 231.459 116.656 231.638C116.991 231.814 117.251 232.085 117.436 232.452C117.624 232.815 117.717 233.278 117.717 233.841V238H116.712V233.909C116.712 233.389 116.577 232.987 116.307 232.703C116.04 232.416 115.669 232.273 115.195 232.273C114.865 232.273 114.57 232.342 114.308 232.482C114.05 232.621 113.845 232.824 113.695 233.091C113.547 233.358 113.473 233.682 113.473 234.062Z" fill="#CBD5E1"/>
<rect x="18.5718" y="219.5" width="52" height="29" rx="14.5" stroke="#334155"/>
<path d="M42.2094 229.273V238H41.1526V230.381H41.1014L38.9707 231.795V230.722L41.1526 229.273H42.2094ZM45.7421 234.062V238H44.7364V229.273H45.7421V232.477H45.8273C45.9807 232.139 46.2108 231.871 46.5176 231.672C46.8273 231.47 47.2392 231.369 47.7534 231.369C48.1994 231.369 48.5901 231.459 48.9253 231.638C49.2605 231.814 49.5205 232.085 49.7051 232.452C49.8926 232.815 49.9864 233.278 49.9864 233.841V238H48.9807V233.909C48.9807 233.389 48.8457 232.987 48.5759 232.703C48.3088 232.416 47.9381 232.273 47.4636 232.273C47.1341 232.273 46.8386 232.342 46.5773 232.482C46.3188 232.621 46.1142 232.824 45.9636 233.091C45.8159 233.358 45.7421 233.682 45.7421 234.062Z" fill="#CBD5E1"/>
<path d="M12.8717 202.21V201.341L16.7069 195.273H17.3376V196.619H16.9115L14.0138 201.205V201.273H19.1785V202.21H12.8717ZM16.9797 204V201.946V201.541V195.273H17.9854V204H16.9797ZM23.6732 204.119C23.3153 204.114 22.9573 204.045 22.5993 203.915C22.2414 203.784 21.9147 203.564 21.6192 203.254C21.3238 202.942 21.0866 202.52 20.9076 201.989C20.7286 201.455 20.6391 200.784 20.6391 199.977C20.6391 199.205 20.7116 198.52 20.8564 197.923C21.0013 197.324 21.2116 196.82 21.4871 196.411C21.7627 195.999 22.0951 195.686 22.4843 195.473C22.8763 195.26 23.3181 195.153 23.8096 195.153C24.2982 195.153 24.7329 195.251 25.1135 195.447C25.4971 195.641 25.8096 195.911 26.051 196.257C26.2925 196.604 26.4488 197.003 26.5198 197.455H25.48C25.3834 197.062 25.1959 196.737 24.9175 196.479C24.6391 196.22 24.2698 196.091 23.8096 196.091C23.1334 196.091 22.6008 196.385 22.2116 196.973C21.8252 197.561 21.6306 198.386 21.6278 199.449H21.6959C21.855 199.207 22.0439 199.001 22.2627 198.831C22.4843 198.658 22.7286 198.524 22.9957 198.43C23.2627 198.337 23.5454 198.29 23.8437 198.29C24.3437 198.29 24.801 198.415 25.2158 198.665C25.6306 198.912 25.963 199.254 26.213 199.692C26.463 200.126 26.588 200.625 26.588 201.188C26.588 201.727 26.4672 202.222 26.2258 202.67C25.9843 203.116 25.6448 203.472 25.2073 203.736C24.7726 203.997 24.2613 204.125 23.6732 204.119ZM23.6732 203.182C24.0312 203.182 24.3522 203.092 24.6363 202.913C24.9232 202.734 25.1491 202.494 25.3138 202.193C25.4814 201.892 25.5653 201.557 25.5653 201.188C25.5653 200.827 25.4843 200.499 25.3224 200.203C25.1633 199.905 24.9431 199.668 24.6618 199.491C24.3834 199.315 24.0653 199.227 23.7073 199.227C23.4374 199.227 23.186 199.281 22.953 199.389C22.7201 199.494 22.5155 199.639 22.3394 199.824C22.1661 200.009 22.0297 200.22 21.9303 200.459C21.8309 200.695 21.7812 200.943 21.7812 201.205C21.7812 201.551 21.8621 201.875 22.0241 202.176C22.1888 202.477 22.4133 202.72 22.6974 202.905C22.9843 203.089 23.3096 203.182 23.6732 203.182Z" fill="#615E83"/>
<path d="M12.9655 137.324V136.455L16.8007 130.387H17.4314V131.734H17.0052L14.1075 136.319V136.387H19.2723V137.324H12.9655ZM17.0734 139.114V137.06V136.655V130.387H18.0791V139.114H17.0734ZM23.6647 139.234C23.0795 139.234 22.5624 139.13 22.1135 138.922C21.6675 138.712 21.3195 138.424 21.0695 138.057C20.8195 137.688 20.6959 137.268 20.6988 136.796C20.6959 136.427 20.7684 136.086 20.9161 135.773C21.0638 135.458 21.2655 135.195 21.5212 134.985C21.7797 134.772 22.0681 134.637 22.3863 134.58V134.529C21.9687 134.421 21.6363 134.187 21.3891 133.826C21.142 133.462 21.0198 133.049 21.0226 132.586C21.0198 132.143 21.132 131.746 21.3593 131.397C21.5866 131.047 21.8991 130.772 22.2968 130.57C22.6974 130.369 23.1533 130.268 23.6647 130.268C24.1704 130.268 24.6221 130.369 25.0198 130.57C25.4175 130.772 25.73 131.047 25.9573 131.397C26.1874 131.746 26.3039 132.143 26.3067 132.586C26.3039 133.049 26.1775 133.462 25.9275 133.826C25.6803 134.187 25.3522 134.421 24.9431 134.529V134.58C25.2584 134.637 25.5425 134.772 25.7954 134.985C26.0482 135.195 26.2499 135.458 26.4005 135.773C26.551 136.086 26.6278 136.427 26.6306 136.796C26.6278 137.268 26.4999 137.688 26.2471 138.057C25.9971 138.424 25.6491 138.712 25.203 138.922C24.7599 139.13 24.2471 139.234 23.6647 139.234ZM23.6647 138.296C24.0596 138.296 24.4005 138.232 24.6874 138.104C24.9743 137.976 25.1959 137.796 25.3522 137.563C25.5084 137.33 25.588 137.057 25.5908 136.745C25.588 136.415 25.5028 136.124 25.3351 135.871C25.1675 135.619 24.9388 135.42 24.6491 135.275C24.3621 135.13 24.034 135.057 23.6647 135.057C23.2925 135.057 22.9601 135.13 22.6675 135.275C22.3778 135.42 22.1491 135.619 21.9814 135.871C21.8167 136.124 21.7357 136.415 21.7385 136.745C21.7357 137.057 21.811 137.33 21.9644 137.563C22.1206 137.796 22.3437 137.976 22.6334 138.104C22.9232 138.232 23.267 138.296 23.6647 138.296ZM23.6647 134.154C23.9772 134.154 24.2542 134.092 24.4957 133.967C24.74 133.842 24.9317 133.667 25.0709 133.442C25.2101 133.218 25.2812 132.955 25.284 132.654C25.2812 132.359 25.2116 132.101 25.0752 131.883C24.9388 131.661 24.7499 131.491 24.5084 131.371C24.267 131.249 23.9857 131.188 23.6647 131.188C23.338 131.188 23.0525 131.249 22.8081 131.371C22.5638 131.491 22.3749 131.661 22.2414 131.883C22.1079 132.101 22.0425 132.359 22.0454 132.654C22.0425 132.955 22.1093 133.218 22.2456 133.442C22.3849 133.667 22.5766 133.842 22.8209 133.967C23.0653 134.092 23.3465 134.154 23.6647 134.154Z" fill="#615E83"/>
<path d="M13.5045 169.543V168.674L17.3398 162.605H17.9704V163.952H17.5443L14.6466 168.537V168.605H19.8113V169.543H13.5045ZM17.6125 171.333V169.279V168.874V162.605H18.6182V171.333H17.6125ZM21.681 171.333L25.5844 163.611V163.543H21.0844V162.605H26.6753V163.594L22.789 171.333H21.681Z" fill="#615E83"/>
<path d="M12.8717 105.106V104.237L16.7069 98.1685H17.3376V99.5151H16.9115L14.0138 104.1V104.168H19.1785V105.106H12.8717ZM16.9797 106.896V104.842V104.437V98.1685H17.9854V106.896H16.9797ZM23.5539 98.0492C23.9118 98.052 24.2698 98.1202 24.6278 98.2537C24.9857 98.3872 25.3124 98.6088 25.6079 98.9185C25.9033 99.2253 26.1405 99.6443 26.3195 100.176C26.4985 100.707 26.588 101.373 26.588 102.174C26.588 102.95 26.5141 103.639 26.3664 104.241C26.2215 104.84 26.0113 105.346 25.7357 105.758C25.463 106.17 25.1306 106.482 24.7385 106.695C24.3493 106.909 23.909 107.015 23.4175 107.015C22.9289 107.015 22.4928 106.918 22.1093 106.725C21.7286 106.529 21.4161 106.258 21.1718 105.911C20.9303 105.562 20.7755 105.157 20.7073 104.697H21.7471C21.8408 105.097 22.0269 105.428 22.3053 105.69C22.5866 105.948 22.9573 106.078 23.4175 106.078C24.0908 106.078 24.6221 105.784 25.0113 105.195C25.4033 104.607 25.5993 103.776 25.5993 102.703H25.5312C25.3721 102.941 25.1832 103.147 24.9644 103.32C24.7457 103.494 24.5028 103.627 24.2357 103.721C23.9687 103.815 23.6846 103.862 23.3834 103.862C22.8834 103.862 22.4246 103.738 22.007 103.491C21.5922 103.241 21.2599 102.899 21.0099 102.464C20.7627 102.026 20.6391 101.526 20.6391 100.964C20.6391 100.43 20.7584 99.9412 20.9971 99.498C21.2385 99.052 21.5766 98.6969 22.0113 98.4327C22.4488 98.1685 22.963 98.0406 23.5539 98.0492ZM23.5539 98.9867C23.1959 98.9867 22.8735 99.0761 22.5866 99.2551C22.3025 99.4313 22.0766 99.6699 21.909 99.971C21.7442 100.269 21.6618 100.6 21.6618 100.964C21.6618 101.328 21.7414 101.659 21.9005 101.957C22.0624 102.252 22.2826 102.488 22.561 102.664C22.8422 102.838 23.1618 102.924 23.5198 102.924C23.7897 102.924 24.0411 102.872 24.2741 102.766C24.507 102.659 24.7101 102.512 24.8834 102.328C25.0596 102.14 25.1974 101.928 25.2968 101.693C25.3962 101.454 25.4459 101.205 25.4459 100.947C25.4459 100.606 25.3635 100.286 25.1988 99.9881C25.0368 99.6898 24.8124 99.4483 24.5255 99.2636C24.2414 99.079 23.9175 98.9867 23.5539 98.9867Z" fill="#615E83"/>
<path d="M16.1903 75.9941C15.6903 75.9941 15.24 75.8946 14.8394 75.6958C14.4388 75.4969 14.1178 75.2242 13.8763 74.8776C13.6349 74.531 13.5028 74.1361 13.48 73.6929H14.5028C14.5425 74.0878 14.7215 74.4145 15.0397 74.6731C15.3607 74.9287 15.7442 75.0566 16.1903 75.0566C16.5482 75.0566 16.8664 74.9728 17.1448 74.8052C17.426 74.6375 17.6462 74.4074 17.8053 74.1148C17.9672 73.8194 18.0482 73.4856 18.0482 73.1134C18.0482 72.7327 17.9644 72.3932 17.7968 72.0949C17.632 71.7938 17.4047 71.5566 17.115 71.3833C16.8252 71.21 16.4942 71.1219 16.1221 71.1191C15.855 71.1162 15.5809 71.1574 15.2996 71.2427C15.0184 71.325 14.7868 71.4316 14.605 71.5623L13.6164 71.4429L14.1448 67.1475H18.6789V68.085H15.0312L14.7243 70.6588H14.7755C14.9545 70.5168 15.1789 70.3989 15.4488 70.3052C15.7187 70.2114 15.9999 70.1645 16.2925 70.1645C16.8266 70.1645 17.3025 70.2924 17.7201 70.5481C18.1405 70.8009 18.4701 71.1475 18.7087 71.5878C18.9502 72.0282 19.0709 72.531 19.0709 73.0963C19.0709 73.6532 18.9459 74.1503 18.6959 74.5878C18.4488 75.0225 18.1079 75.3662 17.6732 75.6191C17.2385 75.8691 16.7442 75.9941 16.1903 75.9941ZM23.6104 75.9941C22.9683 75.9941 22.4214 75.8194 21.9697 75.4699C21.518 75.1177 21.1729 74.6077 20.9342 73.9401C20.6956 73.2696 20.5763 72.46 20.5763 71.5111C20.5763 70.5679 20.6956 69.7625 20.9342 69.0949C21.1757 68.4245 21.5223 67.9131 21.974 67.5608C22.4285 67.2057 22.974 67.0282 23.6104 67.0282C24.2467 67.0282 24.7907 67.2057 25.2425 67.5608C25.697 67.9131 26.0436 68.4245 26.2822 69.0949C26.5237 69.7625 26.6444 70.5679 26.6444 71.5111C26.6444 72.46 26.5251 73.2696 26.2865 73.9401C26.0479 74.6077 25.7027 75.1177 25.251 75.4699C24.7993 75.8194 24.2524 75.9941 23.6104 75.9941ZM23.6104 75.0566C24.2467 75.0566 24.741 74.7498 25.0933 74.1361C25.4456 73.5225 25.6217 72.6475 25.6217 71.5111C25.6217 70.7554 25.5407 70.112 25.3788 69.5807C25.2197 69.0495 24.9896 68.6446 24.6885 68.3662C24.3902 68.0878 24.0308 67.9486 23.6104 67.9486C22.9797 67.9486 22.4868 68.2597 22.1317 68.8819C21.7765 69.5012 21.599 70.3776 21.599 71.5111C21.599 72.2668 21.6785 72.9088 21.8376 73.4373C21.9967 73.9657 22.2254 74.3677 22.5237 74.6432C22.8248 74.9188 23.1871 75.0566 23.6104 75.0566Z" fill="#615E83"/>
<line x1="39.1104" y1="199.25" x2="277.116" y2="199.25" stroke="#334155" stroke-width="1.5" stroke-linecap="round"/>
<line x1="39.1104" y1="166.583" x2="277.116" y2="166.583" stroke="#334155" stroke-width="1.5" stroke-linecap="round"/>
<line x1="39.1104" y1="134.81" x2="277.116" y2="134.81" stroke="#334155" stroke-width="1.5" stroke-linecap="round" stroke-dasharray="4 7"/>
<line x1="39.1104" y1="103.036" x2="277.116" y2="103.036" stroke="#334155" stroke-width="1.5" stroke-linecap="round"/>
<line x1="39.1104" y1="71.6931" x2="277.116" y2="71.6931" stroke="#334155" stroke-width="1.5" stroke-linecap="round"/>
<rect x="40.1926" y="70.7157" width="2.34676" height="77.1377" rx="1.17338" fill="#C893FD"/>
<rect x="38.3604" y="84.7317" width="6.01898" height="48.5314" rx="3.00949" fill="#8B5CF6"/>
<rect x="247.955" y="71.7573" width="2.34676" height="100.388" rx="1.17338" fill="#C893FD"/>
<rect x="246.121" y="89.9975" width="6.01898" height="63.1592" rx="3.00949" fill="#8B5CF6"/>
<rect x="273.68" y="70.373" width="2.34676" height="85.4553" rx="1.17338" fill="#C893FD"/>
<rect x="271.847" y="90.747" width="6.01898" height="53.3792" rx="3.00949" fill="#8B5CF6"/>
<rect x="143.992" y="106.686" width="2.34676" height="72.5033" rx="1.17338" fill="#C893FD"/>
<rect x="142.16" y="125.605" width="6.01898" height="44.4969" rx="3.00949" fill="#8B5CF6"/>
<rect x="169.86" y="89.8372" width="2.34676" height="66.966" rx="1.17338" fill="#C893FD"/>
<rect x="168.027" y="106.686" width="6.01898" height="43.3419" rx="3.00949" fill="#8B5CF6"/>
<rect x="66.061" y="86.3577" width="2.34676" height="58.8419" rx="1.17338" fill="#FFFBEB"/>
<rect x="64.2275" y="103.994" width="6.01898" height="35.9148" rx="3.00949" fill="#F59E0B"/>
<rect x="91.9282" y="99.8248" width="2.34676" height="79.3647" rx="1.17338" fill="#FFFBEB"/>
<rect x="90.0958" y="117.782" width="6.01898" height="46.4965" rx="3.00949" fill="#F59E0B"/>
<rect x="222.148" y="101.589" width="2.34676" height="98.4113" rx="1.17338" fill="#FFFBEB"/>
<rect x="220.315" y="119.673" width="6.01898" height="59.5164" rx="3.00949" fill="#F59E0B"/>
<rect x="117.96" y="116.146" width="2.34676" height="79.3647" rx="1.17338" fill="#FFFBEB"/>
<rect x="116.128" y="132.82" width="6.01898" height="41.2056" rx="3.00949" fill="#F59E0B"/>
<rect x="195.728" y="86.9693" width="2.34676" height="78.2383" rx="1.17338" fill="#FFFBEB"/>
<rect x="193.896" y="95.6233" width="6.01898" height="41.5264" rx="3.00949" fill="#F59E0B"/>
<path d="M16.2484 48.6364V32.2727H17.2967V48.6364H16.2484ZM19.0289 37.674C18.9778 37.1584 18.7583 36.7578 18.3705 36.4723C17.9827 36.1868 17.4565 36.044 16.7917 36.044C16.34 36.044 15.9586 36.108 15.6475 36.2358C15.3364 36.3594 15.0978 36.532 14.9316 36.7536C14.7697 36.9751 14.6887 37.2266 14.6887 37.5078C14.6802 37.7422 14.7292 37.9467 14.8357 38.1214C14.9465 38.2962 15.0978 38.4474 15.2896 38.5753C15.4813 38.6989 15.7029 38.8075 15.9543 38.9013C16.2057 38.9908 16.4742 39.0675 16.7597 39.1314L17.9359 39.4126C18.5069 39.5405 19.031 39.7109 19.5083 39.924C19.9856 40.1371 20.3989 40.3991 20.7484 40.7102C21.0978 41.0213 21.3684 41.3878 21.5601 41.8097C21.7562 42.2315 21.8563 42.7152 21.8606 43.2607C21.8563 44.0618 21.6518 44.7564 21.2469 45.3445C20.8464 45.9283 20.2668 46.3821 19.5083 46.706C18.754 47.0256 17.8442 47.1854 16.7789 47.1854C15.7221 47.1854 14.8016 47.0234 14.0175 46.6996C13.2377 46.3757 12.6283 45.8963 12.1894 45.2614C11.7547 44.6222 11.5268 43.8317 11.5055 42.8899H14.1837C14.2136 43.3288 14.3393 43.6953 14.5609 43.9893C14.7867 44.2791 15.0871 44.4986 15.4621 44.6477C15.8414 44.7926 16.2697 44.8651 16.7469 44.8651C17.2157 44.8651 17.6226 44.7969 17.9678 44.6605C18.3172 44.5241 18.5878 44.3345 18.7796 44.0916C18.9714 43.8487 19.0673 43.5696 19.0673 43.2543C19.0673 42.9602 18.9799 42.7131 18.8052 42.5128C18.6347 42.3125 18.3833 42.142 18.0509 42.0014C17.7228 41.8608 17.3201 41.733 16.8428 41.6179L15.4174 41.2599C14.3137 40.9915 13.4422 40.5717 12.803 40.0007C12.1638 39.4297 11.8464 38.6605 11.8506 37.6932C11.8464 36.9006 12.0573 36.2081 12.4834 35.6158C12.9138 35.0234 13.504 34.5611 14.254 34.2287C15.004 33.8963 15.8563 33.7301 16.8109 33.7301C17.7824 33.7301 18.6305 33.8963 19.3549 34.2287C20.0836 34.5611 20.6503 35.0234 21.0552 35.6158C21.46 36.2081 21.6688 36.8942 21.6816 37.674H19.0289ZM23.4474 44.6989V42.5192L28.9126 33.9091H30.7919V36.9261H29.6796L26.2343 42.3786V42.4808H34.0007V44.6989H23.4474ZM29.7308 47V44.0341L29.7819 43.0689V33.9091H32.3771V47H29.7308ZM36.3625 47L41.7894 36.2614V36.1719H35.4676V33.9091H44.653V36.2038L39.2198 47H36.3625ZM51.1106 33.7301C51.7839 33.7301 52.4316 33.843 53.0538 34.0689C53.6802 34.2947 54.2384 34.6548 54.7285 35.1491C55.2228 35.6435 55.6127 36.2997 55.8982 37.1179C56.188 37.9318 56.335 38.9311 56.3393 40.1158C56.3393 41.228 56.2136 42.2209 55.9621 43.0945C55.715 43.9638 55.3592 44.7031 54.8947 45.3125C54.4302 45.9219 53.8698 46.3864 53.2136 46.706C52.5573 47.0213 51.8244 47.179 51.0147 47.179C50.1411 47.179 49.3698 47.0107 48.7008 46.674C48.0317 46.3331 47.4927 45.8707 47.0836 45.2869C46.6788 44.6989 46.4337 44.0384 46.3485 43.3054H49.0779C49.1844 43.7827 49.4082 44.1534 49.7491 44.4176C50.09 44.6776 50.5119 44.8075 51.0147 44.8075C51.867 44.8075 52.5147 44.4368 52.9579 43.6953C53.4011 42.9496 53.6248 41.929 53.629 40.6335H53.5396C53.3435 41.017 53.0793 41.3473 52.7469 41.6243C52.4146 41.897 52.0332 42.108 51.6028 42.2571C51.1766 42.4062 50.7228 42.4808 50.2413 42.4808C49.4699 42.4808 48.7817 42.2997 48.1766 41.9375C47.5715 41.5753 47.0942 41.0767 46.7448 40.4418C46.3954 39.8068 46.2207 39.0824 46.2207 38.2685C46.2164 37.3906 46.4188 36.6087 46.8279 35.9226C47.237 35.2365 47.808 34.6996 48.541 34.3118C49.2782 33.9197 50.1347 33.7259 51.1106 33.7301ZM51.1297 35.9034C50.6994 35.9034 50.3158 36.0057 49.9792 36.2102C49.6468 36.4148 49.3826 36.6896 49.1866 37.0348C48.9948 37.38 48.9011 37.7656 48.9053 38.1918C48.9053 38.6222 48.9991 39.0099 49.1866 39.3551C49.3783 39.696 49.6383 39.9687 49.9664 40.1733C50.2988 40.3736 50.678 40.4737 51.1042 40.4737C51.4238 40.4737 51.7199 40.4141 51.9927 40.2947C52.2654 40.1754 52.5019 40.0114 52.7022 39.8026C52.9067 39.5895 53.0665 39.3445 53.1816 39.0675C53.2967 38.7905 53.3542 38.4964 53.3542 38.1854C53.3499 37.772 53.2519 37.3928 53.0601 37.0476C52.8684 36.7024 52.6042 36.4254 52.2675 36.2166C51.9309 36.0078 51.5516 35.9034 51.1297 35.9034ZM59.3467 47.1662C58.9248 47.1662 58.5626 47.017 58.2601 46.7188C57.9618 46.4162 57.8126 46.054 57.8126 45.6321C57.8126 45.2145 57.9618 44.8565 58.2601 44.5582C58.5626 44.2599 58.9248 44.1108 59.3467 44.1108C59.7558 44.1108 60.1138 44.2599 60.4206 44.5582C60.7274 44.8565 60.8808 45.2145 60.8808 45.6321C60.8808 45.9134 60.8084 46.1712 60.6635 46.4055C60.5229 46.6357 60.3375 46.821 60.1074 46.9616C59.8773 47.098 59.6237 47.1662 59.3467 47.1662ZM67.1514 33.9091V47H64.3837V36.5362H64.307L61.3091 38.4155V35.9609L64.5498 33.9091H67.1514ZM75.1463 47.179C74.1619 47.179 73.2862 47.0192 72.5191 46.6996C71.7563 46.3757 71.1576 45.9347 70.723 45.3764C70.2883 44.8182 70.071 44.1854 70.071 43.478C70.071 42.9325 70.1946 42.4318 70.4417 41.9759C70.6931 41.5156 71.034 41.1342 71.4644 40.8317C71.8948 40.5249 72.3764 40.3288 72.909 40.2436V40.1541C72.2102 40.0135 71.6434 39.6747 71.2088 39.1378C70.7741 38.5966 70.5568 37.968 70.5568 37.2521C70.5568 36.5746 70.7549 35.9716 71.1512 35.4432C71.5475 34.9105 72.0909 34.4929 72.7812 34.1903C73.4758 33.8835 74.2642 33.7301 75.1463 33.7301C76.0284 33.7301 76.8146 33.8835 77.5049 34.1903C78.1995 34.4972 78.745 34.9169 79.1413 35.4496C79.5376 35.978 79.7379 36.5788 79.7421 37.2521C79.7379 37.9723 79.5163 38.6009 79.0774 39.1378C78.6385 39.6747 78.076 40.0135 77.3899 40.1541V40.2436C77.914 40.3288 78.3892 40.5249 78.8153 40.8317C79.2457 41.1342 79.5866 41.5156 79.838 41.9759C80.0937 42.4318 80.2237 42.9325 80.2279 43.478C80.2237 44.1854 80.0042 44.8182 79.5696 45.3764C79.1349 45.9347 78.534 46.3757 77.767 46.6996C77.0042 47.0192 76.1306 47.179 75.1463 47.179ZM75.1463 45.1463C75.5852 45.1463 75.9687 45.0675 76.2968 44.9098C76.625 44.7479 76.8806 44.5263 77.0639 44.245C77.2514 43.9595 77.3451 43.6314 77.3451 43.2607C77.3451 42.8814 77.2492 42.5469 77.0575 42.2571C76.8657 41.9631 76.6058 41.733 76.2777 41.5668C75.9495 41.3963 75.5724 41.3111 75.1463 41.3111C74.7244 41.3111 74.3473 41.3963 74.0149 41.5668C73.6825 41.733 73.4204 41.9631 73.2286 42.2571C73.0411 42.5469 72.9474 42.8814 72.9474 43.2607C72.9474 43.6314 73.039 43.9595 73.2223 44.245C73.4055 44.5263 73.6633 44.7479 73.9957 44.9098C74.3281 45.0675 74.7116 45.1463 75.1463 45.1463ZM75.1463 39.2976C75.5127 39.2976 75.8387 39.223 76.1242 39.0739C76.4098 38.9247 76.6335 38.718 76.7954 38.4538C76.9573 38.1896 77.0383 37.8849 77.0383 37.5398C77.0383 37.1989 76.9573 36.9006 76.7954 36.6449C76.6335 36.3849 76.4119 36.1825 76.1306 36.0376C75.8494 35.8885 75.5213 35.8139 75.1463 35.8139C74.7755 35.8139 74.4474 35.8885 74.1619 36.0376C73.8764 36.1825 73.6527 36.3849 73.4907 36.6449C73.3331 36.9006 73.2542 37.1989 73.2542 37.5398C73.2542 37.8849 73.3352 38.1896 73.4971 38.4538C73.659 38.718 73.8828 38.9247 74.1683 39.0739C74.4538 39.223 74.7798 39.2976 75.1463 39.2976Z" fill="#F8FAFC"/>
<path d="M12.0365 11.9119V10.8182H19.6729V11.9119H16.4711V21H15.2382V11.9119H12.0365ZM22.6247 21.179C22.1408 21.179 21.7017 21.0878 21.3073 20.9055C20.9128 20.7199 20.5996 20.4531 20.3676 20.1051C20.1356 19.7538 20.0196 19.3295 20.0196 18.8324C20.0196 18.3949 20.1058 18.0402 20.2781 17.7685C20.4505 17.4934 20.6808 17.2779 20.9692 17.1222C21.2575 16.9664 21.5757 16.8504 21.9237 16.7741C22.2751 16.6946 22.628 16.6316 22.9827 16.5852C23.4467 16.5256 23.8229 16.4808 24.1112 16.451C24.4029 16.4179 24.615 16.3632 24.7476 16.2869C24.8835 16.2107 24.9514 16.0781 24.9514 15.8892V15.8494C24.9514 15.3589 24.8172 14.9777 24.5487 14.706C24.2836 14.4342 23.8809 14.2983 23.3406 14.2983C22.7805 14.2983 22.3414 14.4209 22.0232 14.6662C21.705 14.9115 21.4813 15.1733 21.352 15.4517L20.2384 15.054C20.4372 14.59 20.7024 14.2287 21.0338 13.9702C21.3686 13.7083 21.7332 13.526 22.1276 13.4233C22.5253 13.3172 22.9164 13.2642 23.3009 13.2642C23.5461 13.2642 23.8279 13.294 24.146 13.3537C24.4675 13.41 24.7774 13.5277 25.0757 13.7067C25.3773 13.8857 25.6276 14.1558 25.8264 14.517C26.0253 14.8783 26.1247 15.3622 26.1247 15.9688V21H24.9514V19.9659H24.8918C24.8122 20.1316 24.6797 20.3089 24.4941 20.4979C24.3084 20.6868 24.0615 20.8475 23.7533 20.9801C23.445 21.1127 23.0689 21.179 22.6247 21.179ZM22.8037 20.125C23.2677 20.125 23.6588 20.0339 23.977 19.8516C24.2985 19.6693 24.5405 19.4339 24.7029 19.1456C24.8686 18.8572 24.9514 18.554 24.9514 18.2358V17.1619C24.9017 17.2216 24.7923 17.2763 24.6233 17.326C24.4576 17.3724 24.2654 17.4138 24.0466 17.4503C23.8312 17.4834 23.6207 17.5133 23.4152 17.5398C23.213 17.563 23.049 17.5829 22.923 17.5994C22.6181 17.6392 22.3331 17.7038 22.0679 17.7933C21.8061 17.8795 21.594 18.0104 21.4316 18.1861C21.2725 18.3584 21.1929 18.5937 21.1929 18.892C21.1929 19.2997 21.3437 19.608 21.6453 19.8168C21.9503 20.0223 22.3364 20.125 22.8037 20.125ZM28.2662 21V13.3636H29.4395V21H28.2662ZM28.8628 12.0909C28.6341 12.0909 28.4369 12.013 28.2712 11.8572C28.1088 11.7015 28.0276 11.5142 28.0276 11.2955C28.0276 11.0767 28.1088 10.8894 28.2712 10.7337C28.4369 10.5779 28.6341 10.5 28.8628 10.5C29.0915 10.5 29.2871 10.5779 29.4495 10.7337C29.6152 10.8894 29.6981 11.0767 29.6981 11.2955C29.6981 11.5142 29.6152 11.7015 29.4495 11.8572C29.2871 12.013 29.0915 12.0909 28.8628 12.0909ZM32.7618 10.8182V21H31.5885V10.8182H32.7618ZM36.6409 21L34.3142 13.3636H35.5471L37.1977 19.2102H37.2773L38.9079 13.3636H40.1608L41.7716 19.1903H41.8511L43.5017 13.3636H44.7346L42.4079 21H41.2545L39.5841 15.1335H39.4648L37.7943 21H36.6409ZM46.2858 21V13.3636H47.4591V21H46.2858ZM46.8824 12.0909C46.6537 12.0909 46.4565 12.013 46.2907 11.8572C46.1283 11.7015 46.0471 11.5142 46.0471 11.2955C46.0471 11.0767 46.1283 10.8894 46.2907 10.7337C46.4565 10.5779 46.6537 10.5 46.8824 10.5C47.1111 10.5 47.3066 10.5779 47.469 10.7337C47.6347 10.8894 47.7176 11.0767 47.7176 11.2955C47.7176 11.5142 47.6347 11.7015 47.469 11.8572C47.3066 12.013 47.1111 12.0909 46.8824 12.0909ZM50.7813 16.4062V21H49.608V13.3636H50.7416V14.5568H50.841C51.02 14.169 51.2918 13.8575 51.6563 13.6222C52.0209 13.3835 52.4916 13.2642 53.0683 13.2642C53.5853 13.2642 54.0377 13.3703 54.4255 13.5824C54.8133 13.7912 55.1149 14.1094 55.3303 14.5369C55.5458 14.9612 55.6535 15.4981 55.6535 16.1477V21H54.4802V16.2273C54.4802 15.6274 54.3244 15.16 54.0129 14.8253C53.7013 14.4872 53.2738 14.3182 52.7302 14.3182C52.3557 14.3182 52.0209 14.3994 51.7259 14.5618C51.4343 14.7242 51.2039 14.9612 51.0349 15.2727C50.8659 15.5843 50.7813 15.9621 50.7813 16.4062ZM60.681 21.1591C60.0447 21.1591 59.4829 20.9983 58.9956 20.6768C58.5084 20.352 58.1273 19.8946 57.8522 19.3047C57.5771 18.7114 57.4395 18.0104 57.4395 17.2017C57.4395 16.3996 57.5771 15.7036 57.8522 15.1136C58.1273 14.5237 58.5101 14.0679 59.0006 13.7464C59.4912 13.425 60.0579 13.2642 60.7009 13.2642C61.1981 13.2642 61.5908 13.3471 61.8792 13.5128C62.1708 13.6752 62.3929 13.8608 62.5454 14.0696C62.7011 14.2751 62.8221 14.4441 62.9083 14.5767H63.0077V10.8182H64.181V21H63.0475V19.8267H62.9083C62.8221 19.9659 62.6995 20.1416 62.5404 20.3537C62.3813 20.5625 62.1543 20.7498 61.8593 20.9155C61.5643 21.0779 61.1715 21.1591 60.681 21.1591ZM60.8401 20.1051C61.3108 20.1051 61.7085 19.9825 62.0333 19.7372C62.3581 19.4886 62.605 19.1456 62.7741 18.7081C62.9431 18.2673 63.0276 17.7585 63.0276 17.1818C63.0276 16.6117 62.9448 16.1129 62.779 15.6854C62.6133 15.2545 62.368 14.9197 62.0432 14.6811C61.7184 14.4392 61.3174 14.3182 60.8401 14.3182C60.343 14.3182 59.9287 14.4458 59.5972 14.701C59.2691 14.9529 59.0222 15.2959 58.8564 15.7301C58.694 16.161 58.6128 16.6449 58.6128 17.1818C58.6128 17.7254 58.6957 18.2192 58.8614 18.6634C59.0305 19.1042 59.279 19.4555 59.6072 19.7173C59.9386 19.9759 60.3496 20.1051 60.8401 20.1051ZM77.2712 10.8182H78.5042V17.5597C78.5042 18.2557 78.3401 18.8771 78.012 19.424C77.6872 19.9676 77.2281 20.3968 76.6349 20.7116C76.0416 21.0232 75.3456 21.179 74.5468 21.179C73.748 21.179 73.052 21.0232 72.4587 20.7116C71.8654 20.3968 71.4047 19.9676 71.0766 19.424C70.7518 18.8771 70.5894 18.2557 70.5894 17.5597V10.8182H71.8224V17.4602C71.8224 17.9574 71.9317 18.3999 72.1505 18.7876C72.3692 19.1721 72.6808 19.4754 73.0851 19.6974C73.4928 19.9162 73.98 20.0256 74.5468 20.0256C75.1135 20.0256 75.6008 19.9162 76.0084 19.6974C76.4161 19.4754 76.7277 19.1721 76.9431 18.7876C77.1618 18.3999 77.2712 17.9574 77.2712 17.4602V10.8182ZM82.1993 10.8182V21H80.9664V10.8182H82.1993Z" fill="#94A3B8"/>
</g>
</svg>
