<svg width="291" height="206" viewBox="0 0 291 206" fill="none" xmlns="http://www.w3.org/2000/svg">
<g opacity="0.6">
<rect x="216.366" y="164.5" width="61" height="31" rx="15.5" stroke="#334155"/>
<path d="M239.7 184H237.007V175.273H239.82C240.666 175.273 241.391 175.447 241.993 175.797C242.595 176.143 243.057 176.642 243.378 177.293C243.699 177.94 243.859 178.716 243.859 179.619C243.859 180.528 243.697 181.311 243.373 181.967C243.05 182.621 242.578 183.124 241.959 183.476C241.339 183.825 240.587 184 239.7 184ZM238.064 183.062H239.632C240.354 183.062 240.952 182.923 241.426 182.645C241.9 182.366 242.254 181.97 242.487 181.456C242.72 180.942 242.837 180.33 242.837 179.619C242.837 178.915 242.722 178.308 242.491 177.8C242.261 177.288 241.918 176.896 241.46 176.624C241.003 176.348 240.433 176.21 239.751 176.21H238.064V183.062ZM247.422 184.153C247.007 184.153 246.631 184.075 246.293 183.919C245.954 183.76 245.686 183.531 245.487 183.233C245.288 182.932 245.189 182.568 245.189 182.142C245.189 181.767 245.263 181.463 245.41 181.23C245.558 180.994 245.756 180.81 246.003 180.676C246.25 180.543 246.523 180.443 246.821 180.378C247.122 180.31 247.425 180.256 247.729 180.216C248.126 180.165 248.449 180.126 248.696 180.101C248.946 180.072 249.128 180.026 249.241 179.96C249.358 179.895 249.416 179.781 249.416 179.619V179.585C249.416 179.165 249.301 178.838 249.071 178.605C248.844 178.372 248.498 178.256 248.035 178.256C247.555 178.256 247.179 178.361 246.906 178.571C246.633 178.781 246.442 179.006 246.331 179.244L245.376 178.903C245.547 178.506 245.774 178.196 246.058 177.974C246.345 177.75 246.658 177.594 246.996 177.506C247.337 177.415 247.672 177.369 248.001 177.369C248.212 177.369 248.453 177.395 248.726 177.446C249.001 177.494 249.267 177.595 249.523 177.749C249.781 177.902 249.996 178.134 250.166 178.443C250.337 178.753 250.422 179.168 250.422 179.688V184H249.416V183.114H249.365C249.297 183.256 249.183 183.408 249.024 183.57C248.865 183.732 248.653 183.869 248.389 183.983C248.125 184.097 247.802 184.153 247.422 184.153ZM247.575 183.25C247.973 183.25 248.308 183.172 248.581 183.016C248.856 182.859 249.064 182.658 249.203 182.411C249.345 182.163 249.416 181.903 249.416 181.631V180.71C249.373 180.761 249.28 180.808 249.135 180.851C248.993 180.891 248.828 180.926 248.641 180.957C248.456 180.986 248.275 181.011 248.099 181.034C247.926 181.054 247.785 181.071 247.677 181.085C247.416 181.119 247.172 181.175 246.945 181.251C246.72 181.325 246.538 181.437 246.399 181.588C246.263 181.736 246.195 181.937 246.195 182.193C246.195 182.543 246.324 182.807 246.582 182.986C246.844 183.162 247.175 183.25 247.575 183.25ZM252.671 186.455C252.5 186.455 252.348 186.44 252.215 186.412C252.081 186.386 251.989 186.361 251.938 186.335L252.193 185.449C252.438 185.511 252.654 185.534 252.841 185.517C253.029 185.5 253.195 185.416 253.34 185.266C253.487 185.118 253.622 184.878 253.745 184.545L253.932 184.034L251.512 177.455H252.603L254.409 182.67H254.478L256.284 177.455H257.375L254.597 184.955C254.472 185.293 254.317 185.572 254.132 185.794C253.948 186.018 253.733 186.185 253.489 186.293C253.247 186.401 252.975 186.455 252.671 186.455Z" fill="#CBD5E1"/>
<rect x="146.768" y="164.5" width="61" height="29" rx="14.5" fill="#0891B2" fill-opacity="0.1"/>
<rect x="146.768" y="164.5" width="61" height="29" rx="14.5" stroke="#06B6D4"/>
<path d="M167.238 183V182.233L170.119 179.08C170.457 178.71 170.735 178.389 170.954 178.116C171.173 177.841 171.334 177.582 171.44 177.341C171.548 177.097 171.602 176.841 171.602 176.574C171.602 176.267 171.528 176.001 171.38 175.777C171.235 175.553 171.036 175.379 170.783 175.257C170.53 175.135 170.246 175.074 169.931 175.074C169.596 175.074 169.303 175.143 169.053 175.283C168.806 175.419 168.614 175.611 168.478 175.858C168.344 176.105 168.278 176.395 168.278 176.727H167.272C167.272 176.216 167.39 175.767 167.626 175.381C167.861 174.994 168.182 174.693 168.589 174.477C168.998 174.261 169.457 174.153 169.965 174.153C170.477 174.153 170.93 174.261 171.325 174.477C171.719 174.693 172.029 174.984 172.254 175.351C172.478 175.717 172.59 176.125 172.59 176.574C172.59 176.895 172.532 177.209 172.415 177.516C172.302 177.82 172.103 178.159 171.819 178.534C171.538 178.906 171.147 179.361 170.647 179.898L168.687 181.994V182.062H172.744V183H167.238ZM174.111 181.21V180.341L177.947 174.273H178.577V175.619H178.151L175.254 180.205V180.273H180.418V181.21H174.111ZM178.219 183V180.946V180.541V174.273H179.225V183H178.219ZM183.038 179.062V183H182.032V174.273H183.038V177.477H183.123C183.277 177.139 183.507 176.871 183.814 176.672C184.123 176.47 184.535 176.369 185.049 176.369C185.495 176.369 185.886 176.459 186.221 176.638C186.556 176.814 186.816 177.085 187.001 177.452C187.189 177.815 187.282 178.278 187.282 178.841V183H186.277V178.909C186.277 178.389 186.142 177.987 185.872 177.703C185.605 177.416 185.234 177.273 184.76 177.273C184.43 177.273 184.135 177.342 183.873 177.482C183.615 177.621 183.41 177.824 183.26 178.091C183.112 178.358 183.038 178.682 183.038 179.062Z" fill="#06B6D4"/>
<rect x="79.1699" y="164.5" width="59" height="29" rx="14.5" stroke="#334155"/>
<path d="M102.675 174.273V183H101.618V175.381H101.567L99.4361 176.795V175.722L101.618 174.273H102.675ZM105.185 183V182.233L108.065 179.08C108.403 178.71 108.682 178.389 108.901 178.116C109.119 177.841 109.281 177.582 109.386 177.341C109.494 177.097 109.548 176.841 109.548 176.574C109.548 176.267 109.474 176.001 109.327 175.777C109.182 175.553 108.983 175.379 108.73 175.257C108.477 175.135 108.193 175.074 107.878 175.074C107.543 175.074 107.25 175.143 107 175.283C106.753 175.419 106.561 175.611 106.425 175.858C106.291 176.105 106.224 176.395 106.224 176.727H105.219C105.219 176.216 105.337 175.767 105.572 175.381C105.808 174.994 106.129 174.693 106.536 174.477C106.945 174.261 107.403 174.153 107.912 174.153C108.423 174.153 108.876 174.261 109.271 174.477C109.666 174.693 109.976 174.984 110.2 175.351C110.425 175.717 110.537 176.125 110.537 176.574C110.537 176.895 110.479 177.209 110.362 177.516C110.249 177.82 110.05 178.159 109.766 178.534C109.484 178.906 109.094 179.361 108.594 179.898L106.634 181.994V182.062H110.69V183H105.185ZM113.473 179.062V183H112.467V174.273H113.473V177.477H113.558C113.712 177.139 113.942 176.871 114.249 176.672C114.558 176.47 114.97 176.369 115.484 176.369C115.93 176.369 116.321 176.459 116.656 176.638C116.991 176.814 117.251 177.085 117.436 177.452C117.624 177.815 117.717 178.278 117.717 178.841V183H116.712V178.909C116.712 178.389 116.577 177.987 116.307 177.703C116.04 177.416 115.669 177.273 115.195 177.273C114.865 177.273 114.57 177.342 114.308 177.482C114.05 177.621 113.845 177.824 113.695 178.091C113.547 178.358 113.473 178.682 113.473 179.062Z" fill="#CBD5E1"/>
<rect x="18.5718" y="164.5" width="52" height="29" rx="14.5" stroke="#334155"/>
<path d="M42.2094 174.273V183H41.1526V175.381H41.1014L38.9707 176.795V175.722L41.1526 174.273H42.2094ZM45.7421 179.062V183H44.7364V174.273H45.7421V177.477H45.8273C45.9807 177.139 46.2108 176.871 46.5176 176.672C46.8273 176.47 47.2392 176.369 47.7534 176.369C48.1994 176.369 48.5901 176.459 48.9253 176.638C49.2605 176.814 49.5205 177.085 49.7051 177.452C49.8926 177.815 49.9864 178.278 49.9864 178.841V183H48.9807V178.909C48.9807 178.389 48.8457 177.987 48.5759 177.703C48.3088 177.416 47.9381 177.273 47.4636 177.273C47.1341 177.273 46.8386 177.342 46.5773 177.482C46.3188 177.621 46.1142 177.824 45.9636 178.091C45.8159 178.358 45.7421 178.682 45.7421 179.062Z" fill="#CBD5E1"/>
<path d="M12.8717 147.21V146.341L16.7069 140.273H17.3376V141.619H16.9115L14.0138 146.205V146.273H19.1785V147.21H12.8717ZM16.9797 149V146.946V146.541V140.273H17.9854V149H16.9797ZM23.6732 149.119C23.3153 149.114 22.9573 149.045 22.5993 148.915C22.2414 148.784 21.9147 148.564 21.6192 148.254C21.3238 147.942 21.0866 147.52 20.9076 146.989C20.7286 146.455 20.6391 145.784 20.6391 144.977C20.6391 144.205 20.7116 143.52 20.8564 142.923C21.0013 142.324 21.2116 141.82 21.4871 141.411C21.7627 140.999 22.0951 140.686 22.4843 140.473C22.8763 140.26 23.3181 140.153 23.8096 140.153C24.2982 140.153 24.7329 140.251 25.1135 140.447C25.4971 140.641 25.8096 140.911 26.051 141.257C26.2925 141.604 26.4488 142.003 26.5198 142.455H25.48C25.3834 142.062 25.1959 141.737 24.9175 141.479C24.6391 141.22 24.2698 141.091 23.8096 141.091C23.1334 141.091 22.6008 141.385 22.2116 141.973C21.8252 142.561 21.6306 143.386 21.6278 144.449H21.6959C21.855 144.207 22.0439 144.001 22.2627 143.831C22.4843 143.658 22.7286 143.524 22.9957 143.43C23.2627 143.337 23.5454 143.29 23.8437 143.29C24.3437 143.29 24.801 143.415 25.2158 143.665C25.6306 143.912 25.963 144.254 26.213 144.692C26.463 145.126 26.588 145.625 26.588 146.188C26.588 146.727 26.4672 147.222 26.2258 147.67C25.9843 148.116 25.6448 148.472 25.2073 148.736C24.7726 148.997 24.2613 149.125 23.6732 149.119ZM23.6732 148.182C24.0312 148.182 24.3522 148.092 24.6363 147.913C24.9232 147.734 25.1491 147.494 25.3138 147.193C25.4814 146.892 25.5653 146.557 25.5653 146.188C25.5653 145.827 25.4843 145.499 25.3224 145.203C25.1633 144.905 24.9431 144.668 24.6618 144.491C24.3834 144.315 24.0653 144.227 23.7073 144.227C23.4374 144.227 23.186 144.281 22.953 144.389C22.7201 144.494 22.5155 144.639 22.3394 144.824C22.1661 145.009 22.0297 145.22 21.9303 145.459C21.8309 145.695 21.7812 145.943 21.7812 146.205C21.7812 146.551 21.8621 146.875 22.0241 147.176C22.1888 147.477 22.4133 147.72 22.6974 147.905C22.9843 148.089 23.3096 148.182 23.6732 148.182Z" fill="#615E83"/>
<path d="M12.9655 82.3245V81.4552L16.8007 75.387H17.4314V76.7336H17.0052L14.1075 81.3188V81.387H19.2723V82.3245H12.9655ZM17.0734 84.1143V82.0603V81.6555V75.387H18.0791V84.1143H17.0734ZM23.6647 84.2336C23.0795 84.2336 22.5624 84.1299 22.1135 83.9225C21.6675 83.7123 21.3195 83.4239 21.0695 83.0574C20.8195 82.6881 20.6959 82.2677 20.6988 81.7961C20.6959 81.4268 20.7684 81.0858 20.9161 80.7733C21.0638 80.458 21.2655 80.1952 21.5212 79.985C21.7797 79.7719 22.0681 79.637 22.3863 79.5802V79.529C21.9687 79.4211 21.6363 79.1867 21.3891 78.8259C21.142 78.4623 21.0198 78.0489 21.0226 77.5858C21.0198 77.1427 21.132 76.7464 21.3593 76.3969C21.5866 76.0475 21.8991 75.7719 22.2968 75.5702C22.6974 75.3685 23.1533 75.2677 23.6647 75.2677C24.1704 75.2677 24.6221 75.3685 25.0198 75.5702C25.4175 75.7719 25.73 76.0475 25.9573 76.3969C26.1874 76.7464 26.3039 77.1427 26.3067 77.5858C26.3039 78.0489 26.1775 78.4623 25.9275 78.8259C25.6803 79.1867 25.3522 79.4211 24.9431 79.529V79.5802C25.2584 79.637 25.5425 79.7719 25.7954 79.985C26.0482 80.1952 26.2499 80.458 26.4005 80.7733C26.551 81.0858 26.6278 81.4268 26.6306 81.7961C26.6278 82.2677 26.4999 82.6881 26.2471 83.0574C25.9971 83.4239 25.6491 83.7123 25.203 83.9225C24.7599 84.1299 24.2471 84.2336 23.6647 84.2336ZM23.6647 83.2961C24.0596 83.2961 24.4005 83.2322 24.6874 83.1043C24.9743 82.9765 25.1959 82.7961 25.3522 82.5631C25.5084 82.3302 25.588 82.0574 25.5908 81.7449C25.588 81.4154 25.5028 81.1242 25.3351 80.8714C25.1675 80.6185 24.9388 80.4197 24.6491 80.2748C24.3621 80.1299 24.034 80.0574 23.6647 80.0574C23.2925 80.0574 22.9601 80.1299 22.6675 80.2748C22.3778 80.4197 22.1491 80.6185 21.9814 80.8714C21.8167 81.1242 21.7357 81.4154 21.7385 81.7449C21.7357 82.0574 21.811 82.3302 21.9644 82.5631C22.1206 82.7961 22.3437 82.9765 22.6334 83.1043C22.9232 83.2322 23.267 83.2961 23.6647 83.2961ZM23.6647 79.154C23.9772 79.154 24.2542 79.0915 24.4957 78.9665C24.74 78.8415 24.9317 78.6668 25.0709 78.4424C25.2101 78.218 25.2812 77.9552 25.284 77.654C25.2812 77.3586 25.2116 77.1015 25.0752 76.8827C24.9388 76.6611 24.7499 76.4907 24.5084 76.3714C24.267 76.2492 23.9857 76.1881 23.6647 76.1881C23.338 76.1881 23.0525 76.2492 22.8081 76.3714C22.5638 76.4907 22.3749 76.6611 22.2414 76.8827C22.1079 77.1015 22.0425 77.3586 22.0454 77.654C22.0425 77.9552 22.1093 78.218 22.2456 78.4424C22.3849 78.6668 22.5766 78.8415 22.8209 78.9665C23.0653 79.0915 23.3465 79.154 23.6647 79.154Z" fill="#615E83"/>
<path d="M13.5045 114.543V113.674L17.3398 107.605H17.9704V108.952H17.5443L14.6466 113.537V113.605H19.8113V114.543H13.5045ZM17.6125 116.333V114.279V113.874V107.605H18.6182V116.333H17.6125ZM21.681 116.333L25.5844 108.611V108.543H21.0844V107.605H26.6753V108.594L22.789 116.333H21.681Z" fill="#615E83"/>
<path d="M12.8717 50.106V49.2367L16.7069 43.1685H17.3376V44.5151H16.9115L14.0138 49.1003V49.1685H19.1785V50.106H12.8717ZM16.9797 51.8958V49.8418V49.4369V43.1685H17.9854V51.8958H16.9797ZM23.5539 43.0492C23.9118 43.052 24.2698 43.1202 24.6278 43.2537C24.9857 43.3872 25.3124 43.6088 25.6079 43.9185C25.9033 44.2253 26.1405 44.6443 26.3195 45.1756C26.4985 45.7068 26.588 46.373 26.588 47.1742C26.588 47.9497 26.5141 48.6386 26.3664 49.2409C26.2215 49.8404 26.0113 50.346 25.7357 50.758C25.463 51.1699 25.1306 51.4824 24.7385 51.6955C24.3493 51.9085 23.909 52.0151 23.4175 52.0151C22.9289 52.0151 22.4928 51.9185 22.1093 51.7253C21.7286 51.5293 21.4161 51.258 21.1718 50.9114C20.9303 50.5619 20.7755 50.1571 20.7073 49.6969H21.7471C21.8408 50.0975 22.0269 50.4284 22.3053 50.6898C22.5866 50.9483 22.9573 51.0776 23.4175 51.0776C24.0908 51.0776 24.6221 50.7835 25.0113 50.1955C25.4033 49.6074 25.5993 48.7764 25.5993 47.7026H25.5312C25.3721 47.9412 25.1832 48.1472 24.9644 48.3205C24.7457 48.4938 24.5028 48.6273 24.2357 48.721C23.9687 48.8148 23.6846 48.8617 23.3834 48.8617C22.8834 48.8617 22.4246 48.7381 22.007 48.4909C21.5922 48.2409 21.2599 47.8986 21.0099 47.4639C20.7627 47.0264 20.6391 46.5264 20.6391 45.9639C20.6391 45.4298 20.7584 44.9412 20.9971 44.498C21.2385 44.052 21.5766 43.6969 22.0113 43.4327C22.4488 43.1685 22.963 43.0406 23.5539 43.0492ZM23.5539 43.9867C23.1959 43.9867 22.8735 44.0761 22.5866 44.2551C22.3025 44.4313 22.0766 44.6699 21.909 44.971C21.7442 45.2693 21.6618 45.6003 21.6618 45.9639C21.6618 46.3276 21.7414 46.6585 21.9005 46.9568C22.0624 47.2523 22.2826 47.4881 22.561 47.6642C22.8422 47.8375 23.1618 47.9242 23.5198 47.9242C23.7897 47.9242 24.0411 47.8716 24.2741 47.7665C24.507 47.6585 24.7101 47.5122 24.8834 47.3276C25.0596 47.1401 25.1974 46.9284 25.2968 46.6926C25.3962 46.454 25.4459 46.2054 25.4459 45.9469C25.4459 45.606 25.3635 45.2864 25.1988 44.9881C25.0368 44.6898 24.8124 44.4483 24.5255 44.2636C24.2414 44.079 23.9175 43.9867 23.5539 43.9867Z" fill="#615E83"/>
<path d="M16.1903 20.9941C15.6903 20.9941 15.24 20.8946 14.8394 20.6958C14.4388 20.4969 14.1178 20.2242 13.8763 19.8776C13.6349 19.531 13.5028 19.1361 13.48 18.6929H14.5028C14.5425 19.0878 14.7215 19.4145 15.0397 19.6731C15.3607 19.9287 15.7442 20.0566 16.1903 20.0566C16.5482 20.0566 16.8664 19.9728 17.1448 19.8052C17.426 19.6375 17.6462 19.4074 17.8053 19.1148C17.9672 18.8194 18.0482 18.4856 18.0482 18.1134C18.0482 17.7327 17.9644 17.3932 17.7968 17.0949C17.632 16.7938 17.4047 16.5566 17.115 16.3833C16.8252 16.21 16.4942 16.1219 16.1221 16.1191C15.855 16.1162 15.5809 16.1574 15.2996 16.2427C15.0184 16.325 14.7868 16.4316 14.605 16.5623L13.6164 16.4429L14.1448 12.1475H18.6789V13.085H15.0312L14.7243 15.6588H14.7755C14.9545 15.5168 15.1789 15.3989 15.4488 15.3052C15.7187 15.2114 15.9999 15.1645 16.2925 15.1645C16.8266 15.1645 17.3025 15.2924 17.7201 15.5481C18.1405 15.8009 18.4701 16.1475 18.7087 16.5878C18.9502 17.0282 19.0709 17.531 19.0709 18.0963C19.0709 18.6532 18.9459 19.1503 18.6959 19.5878C18.4488 20.0225 18.1079 20.3662 17.6732 20.6191C17.2385 20.8691 16.7442 20.9941 16.1903 20.9941ZM23.6104 20.9941C22.9683 20.9941 22.4214 20.8194 21.9697 20.4699C21.518 20.1177 21.1729 19.6077 20.9342 18.9401C20.6956 18.2696 20.5763 17.46 20.5763 16.5111C20.5763 15.5679 20.6956 14.7625 20.9342 14.0949C21.1757 13.4245 21.5223 12.9131 21.974 12.5608C22.4285 12.2057 22.974 12.0282 23.6104 12.0282C24.2467 12.0282 24.7907 12.2057 25.2425 12.5608C25.697 12.9131 26.0436 13.4245 26.2822 14.0949C26.5237 14.7625 26.6444 15.5679 26.6444 16.5111C26.6444 17.46 26.5251 18.2696 26.2865 18.9401C26.0479 19.6077 25.7027 20.1177 25.251 20.4699C24.7993 20.8194 24.2524 20.9941 23.6104 20.9941ZM23.6104 20.0566C24.2467 20.0566 24.741 19.7498 25.0933 19.1361C25.4456 18.5225 25.6217 17.6475 25.6217 16.5111C25.6217 15.7554 25.5407 15.112 25.3788 14.5807C25.2197 14.0495 24.9896 13.6446 24.6885 13.3662C24.3902 13.0878 24.0308 12.9486 23.6104 12.9486C22.9797 12.9486 22.4868 13.2597 22.1317 13.8819C21.7765 14.5012 21.599 15.3776 21.599 16.5111C21.599 17.2668 21.6785 17.9088 21.8376 18.4373C21.9967 18.9657 22.2254 19.3677 22.5237 19.6432C22.8248 19.9188 23.1871 20.0566 23.6104 20.0566Z" fill="#615E83"/>
<line x1="39.1104" y1="144.25" x2="277.116" y2="144.25" stroke="#334155" stroke-width="1.5" stroke-linecap="round"/>
<line x1="39.1104" y1="111.583" x2="277.116" y2="111.583" stroke="#334155" stroke-width="1.5" stroke-linecap="round"/>
<line x1="39.1104" y1="79.8096" x2="277.116" y2="79.8096" stroke="#334155" stroke-width="1.5" stroke-linecap="round" stroke-dasharray="4 7"/>
<line x1="39.1104" y1="48.0364" x2="277.116" y2="48.0364" stroke="#334155" stroke-width="1.5" stroke-linecap="round"/>
<line x1="39.1104" y1="16.6931" x2="277.116" y2="16.6931" stroke="#334155" stroke-width="1.5" stroke-linecap="round"/>
<rect x="40.1926" y="15.7157" width="2.34676" height="77.1377" rx="1.17338" fill="#C893FD"/>
<rect x="38.3604" y="29.7317" width="6.01898" height="48.5314" rx="3.00949" fill="#8B5CF6"/>
<rect x="247.955" y="16.7573" width="2.34676" height="100.388" rx="1.17338" fill="#C893FD"/>
<rect x="246.121" y="34.9975" width="6.01898" height="63.1592" rx="3.00949" fill="#8B5CF6"/>
<rect x="273.68" y="15.373" width="2.34676" height="85.4553" rx="1.17338" fill="#C893FD"/>
<rect x="271.847" y="35.747" width="6.01898" height="53.3792" rx="3.00949" fill="#8B5CF6"/>
<rect x="143.992" y="51.686" width="2.34676" height="72.5033" rx="1.17338" fill="#C893FD"/>
<rect x="142.16" y="70.6052" width="6.01898" height="44.4969" rx="3.00949" fill="#8B5CF6"/>
<rect x="169.86" y="34.8372" width="2.34676" height="66.966" rx="1.17338" fill="#C893FD"/>
<rect x="168.027" y="51.6864" width="6.01898" height="43.3419" rx="3.00949" fill="#8B5CF6"/>
<rect x="66.061" y="31.3577" width="2.34676" height="58.8419" rx="1.17338" fill="#FFFBEB"/>
<rect x="64.2275" y="48.9939" width="6.01898" height="35.9148" rx="3.00949" fill="#F59E0B"/>
<rect x="91.9282" y="44.8248" width="2.34676" height="79.3647" rx="1.17338" fill="#FFFBEB"/>
<rect x="90.0958" y="62.7818" width="6.01898" height="46.4965" rx="3.00949" fill="#F59E0B"/>
<rect x="222.148" y="46.5886" width="2.34676" height="98.4113" rx="1.17338" fill="#FFFBEB"/>
<rect x="220.315" y="64.6729" width="6.01898" height="59.5164" rx="3.00949" fill="#F59E0B"/>
<rect x="117.96" y="61.1458" width="2.34676" height="79.3647" rx="1.17338" fill="#FFFBEB"/>
<rect x="116.128" y="77.8204" width="6.01898" height="41.2056" rx="3.00949" fill="#F59E0B"/>
<rect x="195.728" y="31.9693" width="2.34676" height="78.2383" rx="1.17338" fill="#FFFBEB"/>
<rect x="193.896" y="40.6233" width="6.01898" height="41.5264" rx="3.00949" fill="#F59E0B"/>
</g>
</svg>
